<?xml version="1.0" encoding="UTF-8"?>
<!DOCTYPE svg PUBLIC "-//W3C//DTD SVG 1.1//EN" "http://www.w3.org/Graphics/SVG/1.1/DTD/svg11.dtd">
<!-- Creator: CorelDRAW 2021 (64-Bit) -->
<svg xmlns="http://www.w3.org/2000/svg" xml:space="preserve" width="1.9967in" height="0.310866in" version="1.1" style="shape-rendering:geometricPrecision; text-rendering:geometricPrecision; image-rendering:optimizeQuality; fill-rule:evenodd; clip-rule:evenodd"
viewBox="0 0 53.34 8.3"
 xmlns:xlink="http://www.w3.org/1999/xlink"
 xmlns:xodm="http://www.corel.com/coreldraw/odm/2003">
 <defs>
  <style type="text/css">
   <![CDATA[
    .fil1 {fill:white}
    .fil0 {fill:white;fill-rule:nonzero}
   ]]>
  </style>
 </defs>
 <g id="Layer_x0020_1">
  <metadata id="CorelCorpID_0Corel-Layer"/>
  <path class="fil0" d="M-0 8.23l0 -0.09c0.16,-0.01 0.28,-0.03 0.38,-0.07 0.1,-0.04 0.18,-0.09 0.25,-0.17 0.09,-0.09 0.14,-0.2 0.18,-0.33 0.03,-0.13 0.04,-0.34 0.04,-0.62l0 -3.01c0,-0.28 -0.02,-0.49 -0.04,-0.62 -0.03,-0.13 -0.09,-0.24 -0.18,-0.33 -0.07,-0.08 -0.16,-0.14 -0.26,-0.17 -0.1,-0.03 -0.22,-0.06 -0.38,-0.07l0 -0.09 2.68 0c0.27,0 0.45,0 0.53,0.01 0.31,0.03 0.57,0.1 0.77,0.22 0.18,0.11 0.31,0.25 0.41,0.43 0.1,0.18 0.14,0.38 0.14,0.6 0,0.36 -0.11,0.65 -0.33,0.88 -0.08,0.08 -0.17,0.15 -0.27,0.21 -0.1,0.06 -0.25,0.12 -0.43,0.19 0.26,0.04 0.46,0.09 0.61,0.14 0.14,0.05 0.28,0.12 0.39,0.22 0.17,0.14 0.31,0.32 0.41,0.53 0.1,0.21 0.14,0.44 0.14,0.68 0,0.25 -0.05,0.47 -0.15,0.68 -0.1,0.2 -0.24,0.37 -0.41,0.49 -0.16,0.11 -0.35,0.19 -0.57,0.23 -0.22,0.04 -0.53,0.07 -0.94,0.07l-2.98 0zm1.74 -5.45l0 2.43 0.33 0c0.15,0 0.31,-0.01 0.48,-0.03 0.14,-0.02 0.26,-0.05 0.35,-0.08 0.09,-0.03 0.17,-0.07 0.24,-0.12 0.14,-0.1 0.25,-0.24 0.32,-0.4 0.08,-0.16 0.11,-0.34 0.11,-0.54 0,-0.21 -0.04,-0.4 -0.12,-0.59 -0.08,-0.19 -0.18,-0.33 -0.31,-0.44 -0.11,-0.09 -0.24,-0.15 -0.38,-0.19 -0.14,-0.03 -0.36,-0.05 -0.65,-0.05l-0.38 0zm0 2.56l0 1.68c0,0.2 0.01,0.37 0.04,0.49 0.03,0.13 0.08,0.23 0.14,0.32 0.14,0.18 0.38,0.27 0.72,0.27 0.44,0 0.79,-0.12 1.04,-0.36 0.25,-0.24 0.38,-0.57 0.38,-0.98 0,-0.24 -0.04,-0.46 -0.12,-0.66 -0.08,-0.2 -0.19,-0.36 -0.32,-0.47 -0.25,-0.2 -0.63,-0.3 -1.15,-0.3l-0.73 0zm4.65 0.67c-0.01,0.13 -0.02,0.23 -0.02,0.29 0,0.24 0.03,0.47 0.1,0.69 0.07,0.23 0.16,0.41 0.28,0.56 0.12,0.15 0.27,0.27 0.45,0.36 0.18,0.09 0.37,0.13 0.57,0.13 0.15,0 0.29,-0.03 0.42,-0.07 0.13,-0.05 0.24,-0.12 0.33,-0.2 0.1,-0.09 0.18,-0.25 0.25,-0.46l0.08 0.03c-0.07,0.32 -0.22,0.56 -0.46,0.72 -0.23,0.16 -0.54,0.24 -0.93,0.24 -0.33,0 -0.62,-0.05 -0.86,-0.16 -0.24,-0.11 -0.44,-0.27 -0.61,-0.49 -0.23,-0.31 -0.35,-0.69 -0.35,-1.13 0,-0.61 0.22,-1.09 0.66,-1.44 0.32,-0.25 0.68,-0.38 1.09,-0.38 0.22,0 0.42,0.04 0.6,0.12 0.19,0.08 0.34,0.19 0.47,0.34 0.2,0.23 0.3,0.51 0.3,0.85l-2.39 0zm1.78 -0.16c-0.02,-0.27 -0.07,-0.48 -0.15,-0.62 -0.07,-0.13 -0.17,-0.24 -0.29,-0.31 -0.12,-0.08 -0.25,-0.12 -0.39,-0.12 -0.23,0 -0.44,0.1 -0.61,0.3 -0.18,0.2 -0.28,0.45 -0.31,0.75l1.75 0zm4.61 1.99l0.07 0.04c-0.1,0.29 -0.32,0.43 -0.67,0.43 -0.19,0 -0.35,-0.05 -0.48,-0.14 -0.08,-0.06 -0.17,-0.17 -0.26,-0.33 -0.18,0.16 -0.32,0.27 -0.41,0.32 -0.18,0.1 -0.38,0.15 -0.62,0.15 -0.3,0 -0.54,-0.07 -0.71,-0.22 -0.18,-0.14 -0.26,-0.34 -0.26,-0.58 0,-0.23 0.07,-0.42 0.22,-0.57 0.08,-0.08 0.17,-0.15 0.28,-0.2 0.11,-0.05 0.26,-0.1 0.46,-0.15 0.24,-0.06 0.41,-0.11 0.52,-0.15 0.11,-0.04 0.21,-0.09 0.28,-0.15 0.09,-0.06 0.15,-0.14 0.18,-0.22 0.03,-0.08 0.05,-0.2 0.05,-0.35 0,-0.32 -0.06,-0.55 -0.18,-0.69 -0.05,-0.07 -0.12,-0.12 -0.21,-0.16 -0.08,-0.04 -0.17,-0.06 -0.27,-0.06 -0.11,0 -0.21,0.03 -0.3,0.09 -0.09,0.06 -0.15,0.14 -0.19,0.24l-0.1 0.24c-0.05,0.13 -0.15,0.19 -0.29,0.19 -0.09,0 -0.17,-0.03 -0.23,-0.09 -0.06,-0.06 -0.09,-0.14 -0.09,-0.23 0,-0.14 0.1,-0.26 0.29,-0.35 0.11,-0.05 0.24,-0.09 0.39,-0.12 0.16,-0.03 0.31,-0.05 0.46,-0.05 0.17,0 0.34,0.02 0.53,0.07 0.18,0.04 0.33,0.1 0.46,0.17 0.18,0.1 0.29,0.23 0.33,0.39 0.02,0.08 0.03,0.22 0.03,0.41l0 1.51c0,0.25 0.01,0.43 0.03,0.52 0.05,0.19 0.16,0.29 0.34,0.29 0.08,0 0.15,-0.02 0.2,-0.05 0.05,-0.03 0.1,-0.09 0.17,-0.18zm-1.36 -1.61c-0.15,0.12 -0.31,0.23 -0.48,0.32 -0.2,0.11 -0.33,0.19 -0.41,0.24 -0.08,0.06 -0.14,0.12 -0.21,0.2 -0.13,0.16 -0.19,0.34 -0.19,0.55 0,0.18 0.05,0.33 0.15,0.45 0.1,0.12 0.22,0.18 0.37,0.18 0.13,0 0.26,-0.04 0.37,-0.13 0.12,-0.08 0.2,-0.19 0.26,-0.33 0.08,-0.18 0.13,-0.45 0.13,-0.79l0 -0.68zm4.37 2.08c-0.03,-0.16 -0.05,-0.33 -0.05,-0.51 -0.34,0.34 -0.75,0.51 -1.21,0.51 -0.34,0 -0.62,-0.08 -0.82,-0.25 -0.2,-0.16 -0.3,-0.39 -0.3,-0.69l0 -1.42 -0 -0.31c0,-0.19 -0.01,-0.32 -0.03,-0.4 -0.02,-0.08 -0.06,-0.16 -0.12,-0.22 -0.08,-0.07 -0.22,-0.13 -0.42,-0.16l0 -0.09 1.2 0 0 2.07c0,0.29 0.01,0.51 0.03,0.65 0.02,0.14 0.06,0.26 0.11,0.35 0.06,0.09 0.15,0.17 0.26,0.22 0.11,0.05 0.24,0.08 0.37,0.08 0.15,0 0.3,-0.03 0.43,-0.09 0.13,-0.06 0.24,-0.14 0.31,-0.25 0.08,-0.11 0.13,-0.23 0.16,-0.37 0.03,-0.14 0.04,-0.37 0.04,-0.69l0 -0.8 -0 -0.3c0,-0.19 -0.01,-0.32 -0.03,-0.4 -0.02,-0.08 -0.06,-0.16 -0.13,-0.22 -0.08,-0.07 -0.22,-0.13 -0.42,-0.16l0 -0.09 1.2 0 0 2.22c0,0.28 0.01,0.48 0.02,0.59 0.02,0.11 0.04,0.2 0.09,0.28 0.05,0.08 0.1,0.13 0.17,0.17 0.07,0.03 0.16,0.05 0.28,0.06l0 0.08 -1.12 0.15zm2.39 -3.54l1.04 0 0 0.15 -1.04 0 0 2.38c0,0.29 0.05,0.49 0.15,0.61 0.05,0.07 0.12,0.12 0.2,0.16 0.08,0.04 0.17,0.06 0.27,0.06 0.12,0 0.22,-0.03 0.3,-0.08 0.08,-0.05 0.17,-0.14 0.27,-0.28l0.06 0.05c-0.09,0.16 -0.21,0.29 -0.38,0.36 -0.16,0.08 -0.36,0.12 -0.6,0.12 -0.32,0 -0.55,-0.06 -0.7,-0.19 -0.08,-0.07 -0.13,-0.14 -0.15,-0.24 -0.02,-0.09 -0.04,-0.25 -0.04,-0.49l0 -2.48 -0.44 0 0 -0.06c0.18,-0.06 0.34,-0.17 0.49,-0.33 0.09,-0.1 0.16,-0.2 0.22,-0.3 0.05,-0.1 0.11,-0.23 0.16,-0.39l0.04 -0.14 0.15 0 0 1.06zm1.98 1.24c-0.01,0.13 -0.02,0.23 -0.02,0.29 0,0.24 0.03,0.47 0.1,0.69 0.07,0.23 0.16,0.41 0.28,0.56 0.12,0.15 0.27,0.27 0.45,0.36 0.18,0.09 0.37,0.13 0.57,0.13 0.15,0 0.29,-0.03 0.42,-0.07 0.13,-0.05 0.24,-0.12 0.33,-0.2 0.1,-0.09 0.18,-0.25 0.25,-0.46l0.08 0.03c-0.07,0.32 -0.22,0.56 -0.46,0.72 -0.23,0.16 -0.54,0.24 -0.93,0.24 -0.33,0 -0.62,-0.05 -0.86,-0.16 -0.24,-0.11 -0.44,-0.27 -0.61,-0.49 -0.23,-0.31 -0.35,-0.69 -0.35,-1.13 0,-0.61 0.22,-1.09 0.66,-1.44 0.32,-0.25 0.68,-0.38 1.09,-0.38 0.22,0 0.42,0.04 0.6,0.12 0.19,0.08 0.34,0.19 0.47,0.34 0.2,0.23 0.3,0.51 0.3,0.85l-2.39 0zm1.78 -0.16c-0.02,-0.27 -0.07,-0.48 -0.15,-0.62 -0.07,-0.13 -0.17,-0.24 -0.29,-0.31 -0.12,-0.08 -0.25,-0.12 -0.39,-0.12 -0.23,0 -0.44,0.1 -0.61,0.3 -0.18,0.2 -0.28,0.45 -0.31,0.75l1.75 0zm5.04 -0.37l0 1.47c0,0.28 0.02,0.48 0.05,0.62 0.03,0.14 0.09,0.25 0.17,0.33 0.07,0.08 0.16,0.13 0.26,0.17 0.1,0.04 0.22,0.06 0.38,0.07l0 0.09 -2.6 0 0 -0.09c0.16,-0.01 0.28,-0.03 0.38,-0.07 0.1,-0.04 0.18,-0.09 0.25,-0.17 0.09,-0.09 0.14,-0.2 0.18,-0.33 0.03,-0.13 0.04,-0.34 0.04,-0.62l0 -3.01c0,-0.23 -0.01,-0.42 -0.03,-0.54 -0.02,-0.13 -0.06,-0.23 -0.1,-0.31 -0.07,-0.11 -0.16,-0.19 -0.27,-0.24 -0.11,-0.05 -0.25,-0.08 -0.42,-0.1l-0.03 0 0 -0.09 2.46 0c0.43,0 0.74,0.02 0.95,0.07 0.2,0.04 0.39,0.13 0.56,0.26 0.39,0.29 0.58,0.69 0.58,1.18 0,0.5 -0.2,0.86 -0.59,1.09 -0.2,0.12 -0.45,0.19 -0.74,0.22 -0.09,0.01 -0.32,0.01 -0.67,0.01l-0.8 0zm0 -0.13l0.4 0c0.27,0 0.48,-0.02 0.62,-0.06 0.14,-0.04 0.28,-0.11 0.39,-0.22 0.27,-0.24 0.4,-0.57 0.4,-0.97 0,-0.22 -0.04,-0.43 -0.12,-0.62 -0.08,-0.19 -0.19,-0.34 -0.33,-0.46 -0.17,-0.14 -0.36,-0.22 -0.59,-0.25 -0.06,-0.01 -0.2,-0.01 -0.43,-0.01l-0.34 0 0 2.57zm6.49 2.48l0.07 0.04c-0.1,0.29 -0.32,0.43 -0.67,0.43 -0.19,0 -0.35,-0.05 -0.48,-0.14 -0.08,-0.06 -0.17,-0.17 -0.26,-0.33 -0.18,0.16 -0.32,0.27 -0.41,0.32 -0.18,0.1 -0.38,0.15 -0.62,0.15 -0.3,0 -0.54,-0.07 -0.71,-0.22 -0.18,-0.14 -0.26,-0.34 -0.26,-0.58 0,-0.23 0.07,-0.42 0.22,-0.57 0.08,-0.08 0.17,-0.15 0.28,-0.2 0.11,-0.05 0.26,-0.1 0.46,-0.15 0.24,-0.06 0.41,-0.11 0.52,-0.15 0.11,-0.04 0.21,-0.09 0.28,-0.15 0.09,-0.06 0.15,-0.14 0.18,-0.22 0.03,-0.08 0.05,-0.2 0.05,-0.35 0,-0.32 -0.06,-0.55 -0.18,-0.69 -0.05,-0.07 -0.12,-0.12 -0.21,-0.16 -0.08,-0.04 -0.17,-0.06 -0.27,-0.06 -0.11,0 -0.21,0.03 -0.3,0.09 -0.09,0.06 -0.15,0.14 -0.19,0.24l-0.1 0.24c-0.05,0.13 -0.15,0.19 -0.29,0.19 -0.09,0 -0.17,-0.03 -0.23,-0.09 -0.06,-0.06 -0.09,-0.14 -0.09,-0.23 0,-0.14 0.1,-0.26 0.29,-0.35 0.11,-0.05 0.24,-0.09 0.39,-0.12 0.16,-0.03 0.31,-0.05 0.46,-0.05 0.17,0 0.34,0.02 0.53,0.07 0.18,0.04 0.33,0.1 0.46,0.17 0.18,0.1 0.29,0.23 0.33,0.39 0.02,0.08 0.03,0.22 0.03,0.41l0 1.51c0,0.25 0.01,0.43 0.03,0.52 0.05,0.19 0.16,0.29 0.34,0.29 0.08,0 0.15,-0.02 0.2,-0.05 0.05,-0.03 0.1,-0.09 0.17,-0.18zm-1.36 -1.61c-0.15,0.12 -0.31,0.23 -0.48,0.32 -0.2,0.11 -0.33,0.19 -0.41,0.24 -0.08,0.06 -0.14,0.12 -0.21,0.2 -0.13,0.16 -0.19,0.34 -0.19,0.55 0,0.18 0.05,0.33 0.15,0.45 0.1,0.12 0.22,0.18 0.37,0.18 0.13,0 0.26,-0.04 0.37,-0.13 0.12,-0.08 0.2,-0.19 0.26,-0.33 0.08,-0.18 0.13,-0.45 0.13,-0.79l0 -0.68zm2.6 -0.9c0.1,-0.17 0.2,-0.3 0.33,-0.39 0.23,-0.16 0.48,-0.24 0.77,-0.24 0.18,0 0.31,0.04 0.4,0.12 0.08,0.07 0.13,0.16 0.13,0.26 0,0.08 -0.03,0.14 -0.08,0.19 -0.05,0.05 -0.12,0.07 -0.19,0.07 -0.09,0 -0.17,-0.04 -0.24,-0.11l-0.13 -0.14c-0.1,-0.11 -0.22,-0.16 -0.36,-0.16 -0.19,0 -0.33,0.12 -0.43,0.36 -0.1,0.24 -0.15,0.57 -0.15,1l0 0.76 0 0.31c0,0.19 0.01,0.32 0.03,0.41 0.02,0.09 0.06,0.16 0.13,0.21 0.08,0.07 0.22,0.13 0.42,0.17l0 0.08 -1.8 0 0 -0.08c0.16,-0.02 0.28,-0.05 0.35,-0.09 0.07,-0.04 0.13,-0.11 0.17,-0.2 0.03,-0.06 0.05,-0.16 0.06,-0.28 0.01,-0.13 0.02,-0.31 0.02,-0.55l0 -1c0,-0.28 -0.01,-0.47 -0.02,-0.59 -0.01,-0.11 -0.04,-0.2 -0.09,-0.27 -0.05,-0.08 -0.1,-0.13 -0.17,-0.16 -0.07,-0.03 -0.16,-0.05 -0.28,-0.06l0 -0.08 1.05 -0.15c0.05,0.24 0.07,0.45 0.07,0.63zm5.66 0.15l0 1.47c0,0.28 0.02,0.48 0.05,0.62 0.03,0.14 0.09,0.25 0.17,0.33 0.07,0.08 0.16,0.13 0.26,0.17 0.1,0.04 0.22,0.06 0.38,0.07l0 0.09 -2.6 0 0 -0.09c0.16,-0.01 0.28,-0.03 0.38,-0.07 0.1,-0.04 0.18,-0.09 0.25,-0.17 0.09,-0.09 0.14,-0.2 0.18,-0.33 0.03,-0.13 0.04,-0.34 0.04,-0.62l0 -3.01c0,-0.23 -0.01,-0.42 -0.03,-0.54 -0.02,-0.13 -0.06,-0.23 -0.1,-0.31 -0.07,-0.11 -0.16,-0.19 -0.27,-0.24 -0.11,-0.05 -0.25,-0.08 -0.42,-0.1l-0.03 0 0 -0.09 2.46 0c0.43,0 0.74,0.02 0.95,0.07 0.2,0.04 0.39,0.13 0.56,0.26 0.39,0.29 0.58,0.69 0.58,1.18 0,0.5 -0.2,0.86 -0.59,1.09 -0.2,0.12 -0.45,0.19 -0.74,0.22 -0.09,0.01 -0.32,0.01 -0.67,0.01l-0.8 0zm0 -0.13l0.4 0c0.27,0 0.48,-0.02 0.62,-0.06 0.14,-0.04 0.28,-0.11 0.39,-0.22 0.27,-0.24 0.4,-0.57 0.4,-0.97 0,-0.22 -0.04,-0.43 -0.12,-0.62 -0.08,-0.19 -0.19,-0.34 -0.33,-0.46 -0.17,-0.14 -0.36,-0.22 -0.59,-0.25 -0.06,-0.01 -0.2,-0.01 -0.43,-0.01l-0.34 0 0 2.57zm4.21 -2.85l0 2.78c0.09,-0.12 0.18,-0.21 0.25,-0.27 0.07,-0.07 0.16,-0.12 0.26,-0.17 0.2,-0.1 0.42,-0.15 0.68,-0.15 0.32,0 0.59,0.06 0.8,0.19 0.15,0.09 0.25,0.21 0.31,0.35 0.06,0.14 0.08,0.34 0.08,0.62l0 1.19 0 0.31c0,0.19 0.01,0.32 0.03,0.41 0.02,0.09 0.06,0.16 0.13,0.21 0.08,0.07 0.22,0.13 0.42,0.17l0 0.08 -1.8 0 0 -0.08c0.14,-0.02 0.25,-0.04 0.31,-0.07 0.06,-0.03 0.12,-0.07 0.16,-0.14 0.05,-0.07 0.08,-0.16 0.1,-0.28 0.02,-0.12 0.03,-0.29 0.03,-0.52l0 -1.29c0,-0.2 -0.02,-0.35 -0.04,-0.47 -0.03,-0.11 -0.08,-0.21 -0.15,-0.3 -0.14,-0.16 -0.33,-0.24 -0.58,-0.24 -0.66,0 -0.98,0.52 -0.98,1.56l0 0.65 0 0.3c0,0.18 0.01,0.32 0.03,0.41 0.02,0.09 0.06,0.16 0.13,0.21 0.08,0.07 0.21,0.13 0.42,0.17l0 0.08 -1.8 0 0 -0.08c0.16,-0.02 0.28,-0.05 0.35,-0.09 0.07,-0.04 0.13,-0.11 0.17,-0.2 0.03,-0.06 0.05,-0.16 0.06,-0.28 0.01,-0.13 0.02,-0.31 0.02,-0.55l0 -3.19c0,-0.28 -0.01,-0.47 -0.02,-0.58 -0.01,-0.11 -0.04,-0.21 -0.09,-0.28 -0.05,-0.08 -0.1,-0.13 -0.17,-0.16 -0.07,-0.03 -0.16,-0.05 -0.28,-0.06l0 -0.09 1.18 -0.15zm3.2 2.35l1.18 -0.15 0 2.35 0 0.31c0,0.18 0.01,0.32 0.03,0.4 0.02,0.08 0.06,0.16 0.13,0.21 0.08,0.07 0.22,0.13 0.42,0.17l0 0.08 -1.81 0 0 -0.08c0.16,-0.02 0.28,-0.05 0.35,-0.09 0.07,-0.04 0.13,-0.11 0.17,-0.2 0.03,-0.06 0.05,-0.16 0.06,-0.28 0.01,-0.13 0.02,-0.31 0.02,-0.55l0 -1c0,-0.28 -0.01,-0.47 -0.02,-0.59 -0.01,-0.11 -0.04,-0.2 -0.09,-0.27 -0.05,-0.08 -0.1,-0.13 -0.17,-0.16 -0.07,-0.03 -0.16,-0.05 -0.28,-0.06l0 -0.08zm0.85 -1.62c-0.11,0 -0.19,-0.03 -0.26,-0.1 -0.07,-0.07 -0.1,-0.15 -0.1,-0.26 0,-0.1 0.03,-0.19 0.11,-0.25 0.07,-0.07 0.16,-0.1 0.26,-0.1 0.1,0 0.19,0.03 0.26,0.1 0.07,0.07 0.11,0.15 0.11,0.25 0,0.1 -0.03,0.19 -0.1,0.26 -0.07,0.07 -0.16,0.1 -0.26,0.1zm4.62 4.6l0.07 0.04c-0.1,0.29 -0.32,0.43 -0.67,0.43 -0.19,0 -0.35,-0.05 -0.48,-0.14 -0.08,-0.06 -0.17,-0.17 -0.26,-0.33 -0.18,0.16 -0.32,0.27 -0.41,0.32 -0.18,0.1 -0.38,0.15 -0.62,0.15 -0.3,0 -0.54,-0.07 -0.71,-0.22 -0.18,-0.14 -0.26,-0.34 -0.26,-0.58 0,-0.23 0.07,-0.42 0.22,-0.57 0.08,-0.08 0.17,-0.15 0.28,-0.2 0.11,-0.05 0.26,-0.1 0.46,-0.15 0.24,-0.06 0.41,-0.11 0.52,-0.15 0.11,-0.04 0.21,-0.09 0.28,-0.15 0.09,-0.06 0.15,-0.14 0.18,-0.22 0.03,-0.08 0.05,-0.2 0.05,-0.35 0,-0.32 -0.06,-0.55 -0.18,-0.69 -0.05,-0.07 -0.12,-0.12 -0.21,-0.16 -0.08,-0.04 -0.17,-0.06 -0.27,-0.06 -0.11,0 -0.21,0.03 -0.3,0.09 -0.09,0.06 -0.15,0.14 -0.19,0.24l-0.1 0.24c-0.05,0.13 -0.15,0.19 -0.29,0.19 -0.09,0 -0.17,-0.03 -0.23,-0.09 -0.06,-0.06 -0.09,-0.14 -0.09,-0.23 0,-0.14 0.1,-0.26 0.29,-0.35 0.11,-0.05 0.24,-0.09 0.39,-0.12 0.16,-0.03 0.31,-0.05 0.46,-0.05 0.17,0 0.34,0.02 0.53,0.07 0.18,0.04 0.33,0.1 0.46,0.17 0.18,0.1 0.29,0.23 0.33,0.39 0.02,0.08 0.03,0.22 0.03,0.41l0 1.51c0,0.25 0.01,0.43 0.03,0.52 0.05,0.19 0.16,0.29 0.34,0.29 0.08,0 0.15,-0.02 0.2,-0.05 0.05,-0.03 0.1,-0.09 0.17,-0.18zm-1.36 -1.61c-0.15,0.12 -0.31,0.23 -0.48,0.32 -0.2,0.11 -0.33,0.19 -0.41,0.24 -0.08,0.06 -0.14,0.12 -0.21,0.2 -0.13,0.16 -0.19,0.34 -0.19,0.55 0,0.18 0.05,0.33 0.15,0.45 0.1,0.12 0.22,0.18 0.37,0.18 0.13,0 0.26,-0.04 0.37,-0.13 0.12,-0.08 0.2,-0.19 0.26,-0.33 0.08,-0.18 0.13,-0.45 0.13,-0.79l0 -0.68z"/>
  <polygon class="fil1" points="26.2,4.55 27.14,3.75 26.69,3.24 "/>
  <path class="fil1" d="M47.58 2.63c-0.01,-0.04 0,-0.12 0.01,-0.16l0.01 -0.28c0,-0.08 0.03,-0.23 0.04,-0.26 0.01,-0.07 0,-0.12 0.02,-0.18 0.02,-0.05 0.02,-0.11 0.03,-0.16l0.06 -0.23c0.02,-0.11 0.03,-0.1 0.04,-0.15l0.13 -0.36c0.01,-0.03 0.01,-0 0.02,-0.04 0.01,-0.02 0.01,-0.02 0.01,-0.03 0.01,-0.03 0.02,-0.03 0.03,-0.06 0.03,-0.07 0.07,-0.13 0.11,-0.19 0.03,-0.05 0.08,-0.12 0.13,-0.15 0.07,-0.05 0.12,-0.08 0.21,-0.04 0.12,0.05 0.22,0.24 0.29,0.34l0.09 0.18c0.07,0.14 0.12,0.36 0.07,0.52 -0.06,0.19 -0.16,0.41 -0.33,0.52 -0.02,0.02 -0.03,0.02 -0.05,0.04l-0.5 0.22c-0.01,0.01 -0.01,0.01 -0.02,0.01 -0.03,0.01 -0.02,0.02 -0.05,0.03 -0.12,0.08 -0.21,0.2 -0.27,0.32 -0.04,0.07 -0,0.05 -0.07,0.09zm-0.29 -0.07c0,0.13 -0.01,0.4 0.02,0.51l0.06 0.22c0.02,0.07 0.05,0.13 0.09,0.19 0.02,0.03 0.03,0.05 0.06,0.08 0.02,0.03 0.04,0.05 0.06,0.08 0.09,0.09 0.13,0.13 0.23,0.19 0.02,0.01 0.03,0.02 0.05,0.03 0.02,0.01 0.03,0.02 0.05,0.03 0.15,0.06 0.3,0.1 0.47,0.1 0.13,-0 0.27,-0.03 0.39,-0.08 0.02,-0.01 0.03,-0.01 0.05,-0.02l0.13 -0.08c0.1,-0.07 0.18,-0.15 0.25,-0.24 0.17,-0.21 0.23,-0.51 0.23,-0.77l-0.02 -0.67c-0,-0.04 -0.01,-0.06 -0.02,-0.09 -0,-0.04 -0.01,-0.07 -0.01,-0.1 -0,-0.09 -0.02,-0.12 -0.03,-0.2l-0.03 -0.18c-0.01,-0.03 -0.01,-0.06 -0.02,-0.09l-0.15 -0.52c-0.02,-0.07 -0.08,-0.2 -0.11,-0.27 -0.04,-0.09 -0.16,-0.3 -0.23,-0.38l-0.24 -0.21c-0.15,-0.1 -0.32,-0.08 -0.46,0.02 -0.08,0.05 -0.14,0.12 -0.2,0.19 -0.04,0.05 -0.1,0.14 -0.14,0.2l-0.12 0.22c-0.01,0.03 -0.02,0.05 -0.03,0.08 -0.01,0.03 -0.02,0.05 -0.03,0.08 -0.01,0.03 -0.02,0.05 -0.03,0.08 -0.01,0.02 -0.01,0.02 -0.01,0.04 -0.01,0.02 -0.01,0.03 -0.02,0.04l-0.16 0.62c-0,0.03 -0.01,0.08 -0.01,0.1 -0.01,0.04 -0.02,0.05 -0.02,0.09 -0.03,0.25 -0.06,0.47 -0.06,0.73z"/>
 </g>
</svg>
