<?xml version="1.0" encoding="UTF-8"?>
<!DOCTYPE svg PUBLIC "-//W3C//DTD SVG 1.1//EN" "http://www.w3.org/Graphics/SVG/1.1/DTD/svg11.dtd">
<!-- Creator: CorelDRAW 2021 (64-Bit) -->
<svg xmlns="http://www.w3.org/2000/svg" xml:space="preserve" width="0.34561in" height="0.345606in" version="1.1" style="shape-rendering:geometricPrecision; text-rendering:geometricPrecision; image-rendering:optimizeQuality; fill-rule:evenodd; clip-rule:evenodd"
viewBox="0 0 1.92 1.92"
 xmlns:xlink="http://www.w3.org/1999/xlink"
 xmlns:xodm="http://www.corel.com/coreldraw/odm/2003">
 <defs>
  <style type="text/css">
   <![CDATA[
    .fil1 {fill:black}
    .fil0 {fill:#CCCCCC}
   ]]>
  </style>
 </defs>
 <g id="Layer_x0020_1">
  <metadata id="CorelCorpID_0Corel-Layer"/>
  <rect class="fil0" width="1.92" height="1.92" rx="0.08" ry="0.15"/>
  <path class="fil1" d="M0.84 0.81c0.01,-0 0.02,0 0.03,0l0.05 0c0.02,0 0.04,0.01 0.05,0.01 0.01,0 0.02,0 0.03,0 0.01,0 0.02,0 0.03,0.01l0.04 0.01c0.02,0 0.02,0.01 0.03,0.01l0.07 0.02c0,0 0,0 0.01,0 0,0 0,0 0.01,0 0.01,0 0.01,0 0.01,0.01 0.01,0.01 0.02,0.01 0.04,0.02 0.01,0.01 0.02,0.02 0.03,0.02 0.01,0.01 0.01,0.02 0.01,0.04 -0.01,0.02 -0.04,0.04 -0.06,0.05l-0.03 0.02c-0.03,0.01 -0.07,0.02 -0.1,0.01 -0.04,-0.01 -0.08,-0.03 -0.1,-0.06 -0,-0 -0,-0.01 -0.01,-0.01l-0.04 -0.09c-0,-0 -0,-0 -0,-0 -0,-0 -0,-0 -0.01,-0.01 -0.02,-0.02 -0.04,-0.04 -0.06,-0.05 -0.01,-0.01 -0.01,-0 -0.02,-0.01zm0.01 -0.05c-0.02,0 -0.07,-0 -0.09,0l-0.04 0.01c-0.01,0 -0.02,0.01 -0.04,0.02 -0.01,0 -0.01,0.01 -0.02,0.01 -0.01,0 -0.01,0.01 -0.02,0.01 -0.02,0.02 -0.02,0.02 -0.04,0.04 -0,0 -0,0 -0,0.01 -0,0 -0,0 -0,0.01 -0.01,0.03 -0.02,0.06 -0.02,0.09 0,0.02 0,0.05 0.02,0.07 0,0 0,0.01 0,0.01l0.01 0.02c0.01,0.02 0.03,0.03 0.05,0.05 0.04,0.03 0.09,0.04 0.14,0.04l0.12 -0c0.01,-0 0.01,-0 0.02,-0 0.01,-0 0.01,-0 0.02,-0 0.02,-0 0.02,-0 0.04,-0.01l0.03 -0.01c0,-0 0.01,-0 0.02,-0l0.1 -0.03c0.01,-0 0.04,-0.02 0.05,-0.02 0.02,-0.01 0.06,-0.03 0.07,-0.04l0.04 -0.04c0.02,-0.03 0.01,-0.06 -0,-0.09 -0.01,-0.01 -0.02,-0.03 -0.03,-0.04 -0.01,-0.01 -0.03,-0.02 -0.04,-0.03l-0.04 -0.02c-0.01,-0 -0.01,-0 -0.01,-0.01 -0.01,-0 -0.01,-0 -0.01,-0.01 -0.01,-0 -0.01,-0 -0.01,-0.01 -0,-0 -0,-0 -0.01,-0 -0,-0 -0,-0 -0.01,-0l-0.11 -0.03c-0.01,-0 -0.01,-0 -0.02,-0 -0.01,-0 -0.01,-0 -0.02,-0 -0.05,-0.01 -0.09,-0.01 -0.14,-0.01z"/>
 </g>
</svg>
