<?xml version="1.0" encoding="UTF-8"?>
<!DOCTYPE svg PUBLIC "-//W3C//DTD SVG 1.1//EN" "http://www.w3.org/Graphics/SVG/1.1/DTD/svg11.dtd">
<!-- Creator: CorelDRAW 2021 (64-Bit) -->
<svg xmlns="http://www.w3.org/2000/svg" xml:space="preserve" width="1.6941in" height="0.116417in" version="1.1" style="shape-rendering:geometricPrecision; text-rendering:geometricPrecision; image-rendering:optimizeQuality; fill-rule:evenodd; clip-rule:evenodd"
viewBox="0 0 108.68 7.47"
 xmlns:xlink="http://www.w3.org/1999/xlink"
 xmlns:xodm="http://www.corel.com/coreldraw/odm/2003">
 <defs>
  <style type="text/css">
   <![CDATA[
    .fil0 {fill:#4D4D4D;fill-rule:nonzero}
   ]]>
  </style>
 </defs>
 <g id="Layer_x0020_1">
  <metadata id="CorelCorpID_0Corel-Layer"/>
  <path class="fil0" d="M3.61 0.24c0.61,0 1.2,0.16 1.78,0.47 0.58,0.31 1.03,0.76 1.35,1.33 0.32,0.58 0.48,1.18 0.48,1.81 0,0.62 -0.16,1.22 -0.48,1.8 -0.32,0.57 -0.76,1.02 -1.33,1.34 -0.57,0.32 -1.17,0.48 -1.8,0.48 -0.63,0 -1.23,-0.16 -1.8,-0.48 -0.57,-0.32 -1.02,-0.76 -1.34,-1.34 -0.32,-0.57 -0.48,-1.17 -0.48,-1.8 0,-0.63 0.16,-1.23 0.49,-1.81 0.33,-0.58 0.78,-1.02 1.35,-1.33 0.58,-0.31 1.17,-0.47 1.78,-0.47zm0 0.6c-0.51,0 -1,0.13 -1.48,0.39 -0.48,0.26 -0.86,0.63 -1.13,1.12 -0.27,0.48 -0.41,0.99 -0.41,1.51 0,0.52 0.13,1.02 0.4,1.5 0.27,0.48 0.64,0.85 1.12,1.12 0.48,0.27 0.98,0.4 1.5,0.4 0.52,0 1.02,-0.13 1.5,-0.4 0.48,-0.27 0.85,-0.64 1.12,-1.12 0.26,-0.48 0.4,-0.98 0.4,-1.5 0,-0.52 -0.14,-1.03 -0.41,-1.51 -0.27,-0.48 -0.65,-0.86 -1.13,-1.12 -0.48,-0.26 -0.98,-0.39 -1.48,-0.39zm1.16 3.6l0.59 0.18c-0.1,0.4 -0.3,0.72 -0.61,0.96 -0.31,0.24 -0.69,0.36 -1.13,0.36 -0.56,0 -1.02,-0.18 -1.37,-0.55 -0.35,-0.36 -0.53,-0.87 -0.53,-1.51 0,-0.42 0.08,-0.79 0.24,-1.1 0.16,-0.31 0.39,-0.55 0.68,-0.7 0.3,-0.16 0.63,-0.24 1.01,-0.24 0.42,0 0.78,0.1 1.06,0.31 0.28,0.2 0.47,0.48 0.58,0.83l-0.57 0.15c-0.1,-0.24 -0.24,-0.42 -0.42,-0.55 -0.19,-0.13 -0.41,-0.19 -0.66,-0.19 -0.37,0 -0.67,0.13 -0.91,0.39 -0.24,0.26 -0.36,0.64 -0.36,1.12 0,0.49 0.11,0.86 0.34,1.11 0.23,0.25 0.52,0.38 0.87,0.38 0.29,0 0.54,-0.08 0.76,-0.25 0.22,-0.17 0.36,-0.39 0.43,-0.68zm10.99 -0.79c0.81,-0.19 1.32,-0.74 1.32,-1.49 0,-1.01 -0.95,-1.73 -2.55,-1.73l-2.14 0c-0.12,0 -0.2,0.04 -0.2,0.12l0 0.02c0,0.19 0.35,0.21 0.35,0.55l0 5.59c0,0.34 -0.35,0.36 -0.35,0.54l0 0.03c0,0.08 0.08,0.12 0.2,0.12l2.69 0c1.56,0 2.68,-0.69 2.68,-1.91 0,-0.97 -0.71,-1.66 -2,-1.82zm-2.31 -2.49c0,-0.24 0.12,-0.32 0.29,-0.32l0.77 -0.01c1.07,0 1.76,0.55 1.76,1.48 0,0.69 -0.57,1.19 -1.44,1.19l-1.02 0c-0.23,0 -0.38,-0.15 -0.38,-0.37l0.01 -1.96zm1.56 5.82l-1.15 0c-0.25,0 -0.41,-0.19 -0.41,-0.47l0 -2.62 1.16 0c1.47,0 2.24,0.78 2.24,1.72 0,0.92 -0.72,1.36 -1.84,1.36zm7.39 -0.98c-0.22,0.47 -0.68,0.85 -1.4,0.85 -0.79,0 -1.39,-0.51 -1.62,-1.35l2.71 -0.89c0.29,-0.1 0.46,-0.26 0.46,-0.58 0,-0.68 -0.65,-1.45 -1.82,-1.45 -1.3,0 -2.31,1.03 -2.31,2.41 0,1.53 1.01,2.49 2.27,2.49 1.23,0 1.87,-0.81 1.99,-1.4 0.03,-0.19 -0.2,-0.22 -0.28,-0.08zm-1.81 -3.11c0.68,0 1.15,0.72 1.15,1.16 0,0.17 -0.07,0.27 -0.24,0.34l-2.19 0.78c-0.03,-0.16 -0.04,-0.32 -0.04,-0.5 0,-1 0.52,-1.78 1.31,-1.78zm6.74 3.7l-0.2 -1.95c-0.13,-1.29 -0.85,-2.07 -2.06,-2.07 -1.07,0 -1.73,0.55 -1.73,1.07 0,0.23 0.15,0.36 0.38,0.36 0.49,0 0.33,-1.12 1.35,-1.12 0.78,0 1.1,0.63 1.21,1.78l0.02 0.26c-0.26,-0.24 -0.69,-0.39 -1.21,-0.39 -1.02,0 -1.8,0.51 -1.79,1.45 0,0.94 0.74,1.48 1.82,1.48 0.72,0 1.19,-0.27 1.41,-0.69 0.04,0.54 0.27,0.65 0.72,0.65 0.36,0 0.63,-0.06 0.63,-0.21 0,-0.24 -0.49,-0.03 -0.55,-0.64zm-1.99 0.57c-0.71,0 -1.18,-0.57 -1.18,-1.28 0,-0.61 0.46,-1.02 1.13,-1.02 0.58,0 0.98,0.32 1.08,0.78l0.04 0.44c0.02,0.6 -0.41,1.08 -1.07,1.08zm7.31 -0.63l0 -3.8c0,-0.13 -0.09,-0.15 -0.25,-0.12l-0.83 0.15c-0.1,0.02 -0.15,0.08 -0.15,0.15l0 0.03c0,0.18 0.38,0.2 0.38,0.57l0 2.1c0,0.9 -0.55,1.49 -1.24,1.49 -0.74,0 -1.16,-0.65 -1.16,-1.78l0.01 -2.58c0,-0.13 -0.1,-0.15 -0.26,-0.12l-0.82 0.15c-0.09,0.02 -0.15,0.08 -0.15,0.15l0 0.03c0,0.17 0.36,0.2 0.36,0.57l0 1.73c0,1.45 0.74,2.23 1.81,2.23 0.7,0 1.23,-0.3 1.51,-0.82l0.02 0.06c-0.02,0.55 0.27,0.73 0.72,0.73 0.41,0 0.61,-0.04 0.61,-0.21 0,-0.28 -0.55,0.02 -0.55,-0.7zm2.87 0.94c0.78,0 1.25,-0.59 1.25,-1.2 0,-0.18 -0.24,-0.19 -0.29,-0.04 -0.04,0.33 -0.29,0.59 -0.73,0.59 -0.36,0 -0.62,-0.28 -0.62,-0.82l0 -2.94 1.35 0c0.08,0 0.15,-0.06 0.15,-0.15l0 -0.1c0,-0.08 -0.07,-0.15 -0.15,-0.15l-1.35 0 -0.01 -0.93c0,-0.13 -0.04,-0.2 -0.16,-0.2l-0.1 0c-0.09,0 -0.16,0.07 -0.17,0.2 -0.05,0.56 -0.27,0.93 -0.74,0.93l-0.35 0c-0.1,0 -0.15,0.06 -0.15,0.15l0 0.1c0,0.09 0.06,0.15 0.15,0.15l0.65 0 0 2.93c0,1 0.51,1.48 1.26,1.48zm5.64 -1.48c-0.22,0.47 -0.68,0.85 -1.4,0.85 -0.79,0 -1.39,-0.51 -1.62,-1.35l2.71 -0.89c0.29,-0.1 0.46,-0.26 0.46,-0.58 0,-0.68 -0.65,-1.45 -1.82,-1.45 -1.3,0 -2.31,1.03 -2.31,2.41 0,1.53 1.01,2.49 2.27,2.49 1.23,0 1.87,-0.81 1.99,-1.4 0.03,-0.19 -0.2,-0.22 -0.28,-0.08zm-1.81 -3.11c0.68,0 1.15,0.72 1.15,1.16 0,0.17 -0.07,0.27 -0.24,0.34l-2.19 0.78c-0.03,-0.16 -0.04,-0.32 -0.04,-0.5 0,-1 0.52,-1.78 1.31,-1.78zm5.34 4.49l1.23 0c0.12,0 0.2,-0.05 0.2,-0.13l0 -0.02c0,-0.17 -0.38,-0.19 -0.38,-0.54l0 -1.68 1.01 0c1.79,0 2.86,-0.83 2.86,-2.33 0,-1.63 -1.45,-2.26 -3.09,-2.26l-1.82 0c-0.13,0 -0.21,0.04 -0.21,0.12l0 0.03c0,0.18 0.36,0.22 0.36,0.54l0 5.59c0,0.35 -0.36,0.37 -0.36,0.54l0 0.02c0,0.08 0.08,0.13 0.21,0.13zm1.39 -2.76c-0.24,0 -0.35,-0.13 -0.35,-0.35l0 -3.13c0,-0.21 0.08,-0.31 0.25,-0.31l0.53 0c1.13,0 2.18,0.65 2.18,2.08 0,1.08 -0.75,1.72 -1.95,1.72l-0.66 0zm8.1 1.98l-0.2 -1.95c-0.13,-1.29 -0.85,-2.07 -2.06,-2.07 -1.07,0 -1.73,0.55 -1.73,1.07 0,0.23 0.15,0.36 0.38,0.36 0.49,0 0.33,-1.12 1.35,-1.12 0.78,0 1.1,0.63 1.21,1.78l0.02 0.26c-0.26,-0.24 -0.69,-0.39 -1.21,-0.39 -1.02,0 -1.8,0.51 -1.79,1.45 0,0.94 0.74,1.48 1.82,1.48 0.72,0 1.19,-0.27 1.41,-0.69 0.04,0.54 0.27,0.65 0.72,0.65 0.36,0 0.63,-0.06 0.63,-0.21 0,-0.24 -0.49,-0.03 -0.55,-0.64zm-1.99 0.57c-0.71,0 -1.18,-0.57 -1.18,-1.28 0,-0.61 0.46,-1.02 1.13,-1.02 0.58,0 0.98,0.32 1.08,0.78l0.04 0.44c0.02,0.6 -0.41,1.08 -1.07,1.08zm5.36 -4.59c-0.61,0 -1.06,0.33 -1.27,0.96l0 -0.78c0,-0.15 -0.07,-0.23 -0.25,-0.14l-0.74 0.33c-0.09,0.05 -0.15,0.11 -0.15,0.18l0 0.02c0,0.19 0.39,0.2 0.39,0.57l0 2.98c0,0.34 -0.36,0.35 -0.36,0.53l0 0.04c0,0.08 0.07,0.12 0.2,0.12l1.22 0c0.13,0 0.2,-0.04 0.2,-0.12l0 -0.04c0,-0.18 -0.41,-0.19 -0.41,-0.53l0 -2.23c0,-0.74 0.29,-1.35 0.83,-1.35 0.61,0 0.36,0.69 0.87,0.69 0.27,0 0.39,-0.21 0.39,-0.46 0,-0.41 -0.31,-0.75 -0.9,-0.75zm3.67 4.8l1.23 0c0.12,0 0.2,-0.05 0.2,-0.13l0 -0.02c0,-0.17 -0.38,-0.19 -0.38,-0.54l0 -1.68 1.01 0c1.79,0 2.86,-0.83 2.86,-2.33 0,-1.63 -1.45,-2.26 -3.09,-2.26l-1.82 0c-0.13,0 -0.21,0.04 -0.21,0.12l0 0.03c0,0.18 0.36,0.22 0.36,0.54l0 5.59c0,0.35 -0.36,0.37 -0.36,0.54l0 0.02c0,0.08 0.08,0.13 0.21,0.13zm1.39 -2.76c-0.24,0 -0.35,-0.13 -0.35,-0.35l0 -3.13c0,-0.21 0.08,-0.31 0.25,-0.31l0.53 0c1.13,0 2.18,0.65 2.18,2.08 0,1.08 -0.75,1.72 -1.95,1.72l-0.66 0zm8.71 2.06l-0.11 -1.97c-0.09,-1.48 -0.89,-2.13 -1.86,-2.13 -0.63,0 -1.16,0.3 -1.46,0.77l0.02 -3.18c0,-0.15 -0.11,-0.22 -0.28,-0.13l-0.8 0.35c-0.09,0.04 -0.14,0.09 -0.14,0.17l0 0.03c0,0.16 0.37,0.18 0.37,0.56l0 5.54c0,0.34 -0.36,0.33 -0.36,0.53l0 0.03c0,0.08 0.07,0.13 0.19,0.13l1.23 0c0.12,0 0.21,-0.05 0.21,-0.13l0 -0.03c0,-0.2 -0.39,-0.19 -0.39,-0.53l0 -2.38c0,-0.77 0.5,-1.35 1.23,-1.35 0.68,0 1.16,0.57 1.21,1.72l0.1 2c0.02,0.34 -0.35,0.35 -0.35,0.54l0 0.04c0,0.08 0.08,0.12 0.2,0.12l1.18 0c0.12,0 0.2,-0.04 0.2,-0.12l0 -0.04c0,-0.19 -0.32,-0.2 -0.35,-0.55zm1.77 -4.93c0.38,0 0.64,-0.25 0.64,-0.61 0,-0.36 -0.25,-0.62 -0.64,-0.62 -0.4,0 -0.66,0.25 -0.66,0.62 0,0.36 0.25,0.61 0.66,0.61zm-0.57 5.64l1.21 0c0.12,0 0.21,-0.05 0.21,-0.13l0 -0.04c0,-0.19 -0.39,-0.19 -0.39,-0.53l0 -3.93c0,-0.14 -0.1,-0.24 -0.3,-0.14l-0.75 0.37c-0.09,0.05 -0.15,0.08 -0.15,0.15l0 0.02c0,0.15 0.35,0.23 0.35,0.61l0 2.92c0,0.34 -0.35,0.34 -0.35,0.53l0 0.04c0,0.08 0.07,0.13 0.19,0.13zm6.16 -0.78l-0.2 -1.95c-0.13,-1.29 -0.85,-2.07 -2.06,-2.07 -1.07,0 -1.73,0.55 -1.73,1.07 0,0.23 0.15,0.36 0.38,0.36 0.49,0 0.33,-1.12 1.35,-1.12 0.78,0 1.1,0.63 1.21,1.78l0.02 0.26c-0.26,-0.24 -0.69,-0.39 -1.21,-0.39 -1.02,0 -1.8,0.51 -1.79,1.45 0,0.94 0.74,1.48 1.82,1.48 0.72,0 1.19,-0.27 1.41,-0.69 0.04,0.54 0.27,0.65 0.72,0.65 0.36,0 0.63,-0.06 0.63,-0.21 0,-0.24 -0.49,-0.03 -0.55,-0.64zm-1.99 0.57c-0.71,0 -1.18,-0.57 -1.18,-1.28 0,-0.61 0.46,-1.02 1.13,-1.02 0.58,0 0.98,0.32 1.08,0.78l0.04 0.44c0.02,0.6 -0.41,1.08 -1.07,1.08zm14.23 -1.27l-0.07 0c-0.24,0 -0.29,0.85 -0.87,0.85l-3.13 0c0.28,-1.65 3.79,-2.53 3.79,-4.59 0,-1.21 -0.93,-1.83 -2.17,-1.83 -1.45,0 -2.29,0.98 -2.29,1.62 0,0.28 0.2,0.44 0.46,0.44 0.65,0 0.48,-1.66 1.88,-1.66 0.6,0 1.24,0.5 1.24,1.36 0,1.85 -3.66,3.05 -3.66,5.04l0 0.08c0,0.11 0.08,0.18 0.19,0.18l4.25 0c0.12,0 0.2,-0.09 0.24,-0.21l0.27 -1.1c0.03,-0.12 -0.04,-0.19 -0.14,-0.19zm3.71 1.59c1.58,0 2.73,-1.32 2.73,-3.57 0,-2.14 -1.21,-3.59 -2.8,-3.59 -1.75,0 -2.79,1.34 -2.79,3.54 0,2.23 1.23,3.62 2.86,3.62zm0.13 -0.39c-1.24,0 -2.12,-1.52 -2.12,-3.55 0,-1.77 0.74,-2.81 1.76,-2.81 1.23,0 2.09,1.61 2.09,3.58 0,1.75 -0.74,2.78 -1.73,2.78zm8.18 -1.2l-0.07 0c-0.24,0 -0.29,0.85 -0.87,0.85l-3.13 0c0.28,-1.65 3.79,-2.53 3.79,-4.59 0,-1.21 -0.93,-1.83 -2.17,-1.83 -1.45,0 -2.29,0.98 -2.29,1.62 0,0.28 0.2,0.44 0.46,0.44 0.65,0 0.48,-1.66 1.88,-1.66 0.6,0 1.24,0.5 1.24,1.36 0,1.85 -3.66,3.05 -3.66,5.04l0 0.08c0,0.11 0.08,0.18 0.19,0.18l4.25 0c0.12,0 0.2,-0.09 0.24,-0.21l0.27 -1.1c0.03,-0.12 -0.04,-0.19 -0.14,-0.19zm5.58 0l-0.07 0c-0.24,0 -0.29,0.85 -0.87,0.85l-3.13 0c0.28,-1.65 3.79,-2.53 3.79,-4.59 0,-1.21 -0.93,-1.83 -2.17,-1.83 -1.45,0 -2.29,0.98 -2.29,1.62 0,0.28 0.2,0.44 0.46,0.44 0.65,0 0.48,-1.66 1.88,-1.66 0.6,0 1.24,0.5 1.24,1.36 0,1.85 -3.66,3.05 -3.66,5.04l0 0.08c0,0.11 0.08,0.18 0.19,0.18l4.25 0c0.12,0 0.2,-0.09 0.24,-0.21l0.27 -1.1c0.03,-0.12 -0.04,-0.19 -0.14,-0.19z"/>
 </g>
</svg>
