<?xml version="1.0" encoding="UTF-8"?>
<!DOCTYPE svg PUBLIC "-//W3C//DTD SVG 1.1//EN" "http://www.w3.org/Graphics/SVG/1.1/DTD/svg11.dtd">
<!-- Creator: CorelDRAW 2021 (64-Bit) -->
<svg xmlns="http://www.w3.org/2000/svg" xml:space="preserve" width="0.336807in" height="0.336807in" version="1.1" style="shape-rendering:geometricPrecision; text-rendering:geometricPrecision; image-rendering:optimizeQuality; fill-rule:evenodd; clip-rule:evenodd"
viewBox="0 0 1.94 1.94"
 xmlns:xlink="http://www.w3.org/1999/xlink"
 xmlns:xodm="http://www.corel.com/coreldraw/odm/2003">
 <defs>
  <style type="text/css">
   <![CDATA[
    .fil0 {fill:#4D4D4D}
   ]]>
  </style>
 </defs>
 <g id="Layer_x0020_1">
  <metadata id="CorelCorpID_0Corel-Layer"/>
  <path class="fil0" d="M0.97 0l0 0c0.07,0 0.13,0.06 0.13,0.13l0 0.71 0.71 0c0.07,0 0.13,0.06 0.13,0.13l0 0c0,0.07 -0.06,0.13 -0.13,0.13l-0.71 0 0 0.71c0,0.07 -0.06,0.13 -0.13,0.13l-0 0c-0.07,0 -0.13,-0.06 -0.13,-0.13l0 -0.71 -0.71 0c-0.07,0 -0.13,-0.06 -0.13,-0.13l0 -0c0,-0.07 0.06,-0.13 0.13,-0.13l0.71 0 0 -0.71c0,-0.07 0.06,-0.13 0.13,-0.13z"/>
 </g>
</svg>
