<?xml version="1.0" encoding="UTF-8"?>
<!DOCTYPE svg PUBLIC "-//W3C//DTD SVG 1.1//EN" "http://www.w3.org/Graphics/SVG/1.1/DTD/svg11.dtd">
<!-- Creator: CorelDRAW 2021 (64-Bit) -->
<svg xmlns="http://www.w3.org/2000/svg" xml:space="preserve" width="1.9967in" height="0.31298in" version="1.1" style="shape-rendering:geometricPrecision; text-rendering:geometricPrecision; image-rendering:optimizeQuality; fill-rule:evenodd; clip-rule:evenodd"
viewBox="0 0 152.72 23.94"
 xmlns:xlink="http://www.w3.org/1999/xlink"
 xmlns:xodm="http://www.corel.com/coreldraw/odm/2003">
 <defs>
  <style type="text/css">
   <![CDATA[
    .fil1 {fill:gray}
    .fil0 {fill:gray;fill-rule:nonzero}
   ]]>
  </style>
 </defs>
 <g id="Layer_x0020_1">
  <metadata id="CorelCorpID_0Corel-Layer"/>
  <g id="_2015442029696">
   <g>
    <path class="fil0" d="M-0 23.72l0 -0.26c0.45,-0.02 0.81,-0.09 1.09,-0.19 0.28,-0.11 0.52,-0.27 0.73,-0.49 0.25,-0.25 0.41,-0.57 0.5,-0.95 0.08,-0.38 0.13,-0.97 0.13,-1.78l0 -8.62c0,-0.81 -0.04,-1.4 -0.13,-1.78 -0.09,-0.38 -0.26,-0.7 -0.5,-0.95 -0.21,-0.23 -0.45,-0.39 -0.74,-0.49 -0.28,-0.1 -0.64,-0.16 -1.08,-0.19l0 -0.26 7.66 0c0.78,0 1.28,0.01 1.53,0.02 0.88,0.07 1.62,0.28 2.2,0.63 0.51,0.31 0.9,0.72 1.17,1.23 0.28,0.51 0.41,1.08 0.41,1.71 0,1.02 -0.31,1.86 -0.94,2.52 -0.22,0.24 -0.48,0.44 -0.77,0.6 -0.29,0.16 -0.7,0.34 -1.24,0.53 0.75,0.12 1.33,0.26 1.74,0.41 0.41,0.15 0.79,0.35 1.12,0.62 0.5,0.41 0.89,0.91 1.16,1.51 0.27,0.6 0.41,1.26 0.41,1.95 0,0.71 -0.14,1.36 -0.43,1.95 -0.28,0.59 -0.68,1.06 -1.18,1.42 -0.46,0.32 -1,0.54 -1.64,0.67 -0.63,0.12 -1.53,0.19 -2.68,0.19l-8.53 0zm4.99 -15.6l0 6.96 0.95 0c0.44,0 0.9,-0.03 1.38,-0.1 0.41,-0.06 0.75,-0.14 1,-0.22 0.25,-0.09 0.48,-0.2 0.69,-0.35 0.4,-0.3 0.71,-0.68 0.92,-1.14 0.22,-0.47 0.32,-0.98 0.32,-1.54 0,-0.59 -0.11,-1.16 -0.34,-1.69 -0.22,-0.54 -0.51,-0.95 -0.88,-1.25 -0.32,-0.26 -0.69,-0.43 -1.09,-0.53 -0.41,-0.09 -1.03,-0.14 -1.87,-0.14l-1.09 0zm0 7.32l0 4.81c0,0.58 0.04,1.05 0.12,1.41 0.08,0.36 0.22,0.66 0.4,0.91 0.4,0.52 1.08,0.78 2.05,0.78 1.26,0 2.25,-0.34 2.98,-1.03 0.73,-0.69 1.1,-1.62 1.1,-2.8 0,-0.68 -0.11,-1.3 -0.34,-1.89 -0.23,-0.58 -0.53,-1.02 -0.91,-1.34 -0.7,-0.58 -1.8,-0.87 -3.3,-0.87l-2.1 0zm13.32 1.91c-0.03,0.38 -0.05,0.66 -0.05,0.83 0,0.68 0.1,1.34 0.3,1.99 0.2,0.65 0.47,1.18 0.81,1.61 0.35,0.43 0.78,0.78 1.3,1.03 0.51,0.25 1.06,0.37 1.63,0.37 0.42,0 0.82,-0.07 1.19,-0.21 0.38,-0.14 0.69,-0.34 0.94,-0.59 0.28,-0.27 0.52,-0.71 0.72,-1.31l0.24 0.08c-0.2,0.91 -0.64,1.6 -1.3,2.07 -0.67,0.47 -1.55,0.7 -2.66,0.7 -0.96,0 -1.78,-0.15 -2.46,-0.45 -0.69,-0.3 -1.27,-0.77 -1.74,-1.4 -0.66,-0.88 -0.99,-1.96 -0.99,-3.25 0,-1.75 0.63,-3.13 1.88,-4.12 0.91,-0.72 1.95,-1.08 3.12,-1.08 0.62,0 1.2,0.11 1.73,0.33 0.53,0.22 0.98,0.54 1.34,0.96 0.57,0.65 0.85,1.46 0.85,2.44l-6.84 0zm5.1 -0.45c-0.06,-0.77 -0.2,-1.37 -0.43,-1.79 -0.21,-0.38 -0.49,-0.68 -0.84,-0.9 -0.35,-0.22 -0.72,-0.33 -1.12,-0.33 -0.67,0 -1.25,0.29 -1.75,0.86 -0.5,0.57 -0.8,1.29 -0.89,2.16l5.02 0zm13.2 5.69l0.2 0.12c-0.28,0.82 -0.92,1.23 -1.93,1.23 -0.55,0 -1.01,-0.14 -1.38,-0.41 -0.24,-0.18 -0.49,-0.49 -0.75,-0.94 -0.52,0.47 -0.92,0.77 -1.18,0.93 -0.51,0.28 -1.1,0.42 -1.77,0.42 -0.86,0 -1.54,-0.21 -2.04,-0.62 -0.5,-0.41 -0.75,-0.97 -0.75,-1.67 0,-0.65 0.21,-1.19 0.62,-1.62 0.23,-0.24 0.5,-0.43 0.8,-0.58 0.3,-0.14 0.74,-0.29 1.32,-0.44 0.68,-0.17 1.18,-0.31 1.5,-0.43 0.32,-0.12 0.59,-0.26 0.81,-0.42 0.25,-0.18 0.42,-0.39 0.51,-0.63 0.09,-0.24 0.14,-0.57 0.14,-1 0,-0.91 -0.17,-1.57 -0.51,-1.99 -0.16,-0.2 -0.35,-0.35 -0.6,-0.47 -0.24,-0.12 -0.5,-0.18 -0.76,-0.18 -0.31,0 -0.6,0.08 -0.85,0.25 -0.25,0.16 -0.43,0.39 -0.56,0.68l-0.29 0.68c-0.16,0.37 -0.43,0.55 -0.84,0.55 -0.27,0 -0.49,-0.09 -0.67,-0.26 -0.18,-0.18 -0.27,-0.4 -0.27,-0.66 0,-0.4 0.28,-0.74 0.84,-1.01 0.3,-0.14 0.68,-0.26 1.12,-0.35 0.45,-0.09 0.88,-0.14 1.31,-0.14 0.48,0 0.98,0.06 1.51,0.19 0.52,0.12 0.96,0.28 1.31,0.48 0.5,0.29 0.82,0.66 0.94,1.12 0.06,0.24 0.09,0.63 0.09,1.18l0 4.33c0,0.73 0.03,1.23 0.1,1.5 0.14,0.55 0.46,0.83 0.96,0.83 0.24,0 0.43,-0.04 0.57,-0.13 0.14,-0.08 0.3,-0.26 0.49,-0.52zm-3.88 -4.6c-0.42,0.35 -0.88,0.66 -1.38,0.93 -0.56,0.31 -0.95,0.53 -1.17,0.69 -0.21,0.16 -0.41,0.35 -0.59,0.56 -0.36,0.45 -0.55,0.98 -0.55,1.58 0,0.51 0.14,0.94 0.42,1.28 0.28,0.33 0.64,0.5 1.07,0.5 0.38,0 0.73,-0.12 1.07,-0.36 0.33,-0.24 0.59,-0.55 0.76,-0.95 0.24,-0.52 0.36,-1.28 0.36,-2.27l0 -1.96zm12.51 5.94c-0.1,-0.47 -0.15,-0.96 -0.15,-1.45 -0.98,0.97 -2.13,1.45 -3.47,1.45 -0.98,0 -1.76,-0.24 -2.36,-0.71 -0.58,-0.47 -0.87,-1.12 -0.87,-1.98l0 -4.06 -0.01 -0.89c0,-0.53 -0.03,-0.91 -0.09,-1.16 -0.06,-0.24 -0.18,-0.45 -0.36,-0.62 -0.22,-0.21 -0.63,-0.37 -1.22,-0.47l0 -0.26 3.44 0 0 5.92c0,0.83 0.03,1.45 0.09,1.85 0.06,0.4 0.16,0.73 0.32,0.99 0.17,0.26 0.42,0.47 0.74,0.63 0.32,0.15 0.68,0.23 1.07,0.23 0.44,0 0.85,-0.08 1.23,-0.26 0.38,-0.17 0.68,-0.41 0.9,-0.7 0.23,-0.3 0.38,-0.65 0.45,-1.05 0.08,-0.4 0.11,-1.05 0.11,-1.96l0 -2.28 -0.01 -0.86c0,-0.53 -0.03,-0.92 -0.09,-1.16 -0.06,-0.24 -0.18,-0.45 -0.36,-0.62 -0.22,-0.21 -0.62,-0.37 -1.22,-0.47l0 -0.26 3.44 0 0 6.34c0,0.8 0.02,1.36 0.06,1.69 0.04,0.32 0.13,0.59 0.25,0.79 0.14,0.22 0.3,0.37 0.49,0.47 0.19,0.1 0.45,0.16 0.8,0.18l0 0.24 -3.21 0.43zm6.83 -10.14l2.97 0 0 0.43 -2.97 0 0 6.81c0,0.82 0.14,1.4 0.42,1.75 0.15,0.2 0.34,0.35 0.58,0.46 0.24,0.11 0.5,0.16 0.78,0.16 0.35,0 0.64,-0.07 0.87,-0.22 0.23,-0.14 0.49,-0.41 0.77,-0.79l0.18 0.14c-0.26,0.47 -0.61,0.82 -1.08,1.04 -0.46,0.23 -1.04,0.34 -1.73,0.34 -0.92,0 -1.58,-0.18 -2.01,-0.54 -0.22,-0.19 -0.37,-0.41 -0.44,-0.67 -0.07,-0.26 -0.1,-0.73 -0.1,-1.41l0 -7.09 -1.25 0 0 -0.18c0.5,-0.16 0.97,-0.47 1.4,-0.94 0.26,-0.29 0.47,-0.57 0.62,-0.86 0.16,-0.28 0.31,-0.65 0.45,-1.1l0.12 -0.39 0.43 0 0 3.04zm5.68 3.56c-0.03,0.38 -0.05,0.66 -0.05,0.83 0,0.68 0.1,1.34 0.3,1.99 0.2,0.65 0.47,1.18 0.81,1.61 0.35,0.43 0.78,0.78 1.3,1.03 0.51,0.25 1.06,0.37 1.63,0.37 0.42,0 0.82,-0.07 1.19,-0.21 0.38,-0.14 0.69,-0.34 0.94,-0.59 0.28,-0.27 0.52,-0.71 0.72,-1.31l0.24 0.08c-0.2,0.91 -0.64,1.6 -1.3,2.07 -0.67,0.47 -1.55,0.7 -2.66,0.7 -0.96,0 -1.78,-0.15 -2.46,-0.45 -0.69,-0.3 -1.27,-0.77 -1.74,-1.4 -0.66,-0.88 -0.99,-1.96 -0.99,-3.25 0,-1.75 0.63,-3.13 1.88,-4.12 0.91,-0.72 1.95,-1.08 3.12,-1.08 0.62,0 1.2,0.11 1.73,0.33 0.53,0.22 0.98,0.54 1.34,0.96 0.57,0.65 0.85,1.46 0.85,2.44l-6.84 0zm5.1 -0.45c-0.06,-0.77 -0.2,-1.37 -0.43,-1.79 -0.21,-0.38 -0.49,-0.68 -0.84,-0.9 -0.35,-0.22 -0.72,-0.33 -1.12,-0.33 -0.67,0 -1.25,0.29 -1.75,0.86 -0.5,0.57 -0.8,1.29 -0.89,2.16l5.02 0zm14.44 -1.05l0 4.2c0,0.79 0.04,1.39 0.14,1.77 0.09,0.39 0.26,0.71 0.49,0.96 0.21,0.22 0.45,0.38 0.73,0.49 0.28,0.1 0.64,0.17 1.09,0.19l0 0.26 -7.44 0 0 -0.26c0.45,-0.02 0.81,-0.09 1.09,-0.19 0.28,-0.11 0.52,-0.27 0.73,-0.49 0.25,-0.25 0.41,-0.57 0.5,-0.95 0.08,-0.38 0.13,-0.97 0.13,-1.78l0 -8.62c0,-0.67 -0.03,-1.19 -0.09,-1.55 -0.06,-0.36 -0.16,-0.66 -0.3,-0.88 -0.2,-0.31 -0.46,-0.55 -0.77,-0.7 -0.31,-0.15 -0.72,-0.24 -1.22,-0.28l-0.08 0 0 -0.26 7.03 0c1.23,0 2.13,0.06 2.71,0.19 0.58,0.12 1.12,0.37 1.6,0.75 1.1,0.84 1.65,1.97 1.65,3.36 0,1.43 -0.56,2.47 -1.68,3.13 -0.58,0.34 -1.29,0.55 -2.12,0.62 -0.27,0.02 -0.91,0.04 -1.92,0.04l-2.29 0zm0 -0.36l1.14 0c0.77,0 1.37,-0.06 1.79,-0.17 0.41,-0.11 0.79,-0.32 1.12,-0.63 0.76,-0.69 1.14,-1.62 1.14,-2.78 0,-0.64 -0.11,-1.23 -0.33,-1.76 -0.22,-0.53 -0.54,-0.97 -0.95,-1.31 -0.47,-0.4 -1.04,-0.63 -1.69,-0.7 -0.18,-0.02 -0.59,-0.02 -1.23,-0.02l-0.98 0 0 7.37zm18.57 7.1l0.2 0.12c-0.28,0.82 -0.92,1.23 -1.93,1.23 -0.55,0 -1.01,-0.14 -1.38,-0.41 -0.24,-0.18 -0.49,-0.49 -0.75,-0.94 -0.52,0.47 -0.92,0.77 -1.18,0.93 -0.51,0.28 -1.1,0.42 -1.77,0.42 -0.86,0 -1.54,-0.21 -2.04,-0.62 -0.5,-0.41 -0.75,-0.97 -0.75,-1.67 0,-0.65 0.21,-1.19 0.62,-1.62 0.23,-0.24 0.5,-0.43 0.8,-0.58 0.3,-0.14 0.74,-0.29 1.32,-0.44 0.68,-0.17 1.18,-0.31 1.5,-0.43 0.32,-0.12 0.59,-0.26 0.81,-0.42 0.25,-0.18 0.42,-0.39 0.51,-0.63 0.09,-0.24 0.14,-0.57 0.14,-1 0,-0.91 -0.17,-1.57 -0.51,-1.99 -0.16,-0.2 -0.35,-0.35 -0.6,-0.47 -0.24,-0.12 -0.5,-0.18 -0.76,-0.18 -0.31,0 -0.6,0.08 -0.85,0.25 -0.25,0.16 -0.43,0.39 -0.56,0.68l-0.29 0.68c-0.16,0.37 -0.43,0.55 -0.84,0.55 -0.27,0 -0.49,-0.09 -0.67,-0.26 -0.18,-0.18 -0.27,-0.4 -0.27,-0.66 0,-0.4 0.28,-0.74 0.84,-1.01 0.3,-0.14 0.68,-0.26 1.12,-0.35 0.45,-0.09 0.88,-0.14 1.31,-0.14 0.48,0 0.98,0.06 1.51,0.19 0.52,0.12 0.96,0.28 1.31,0.48 0.5,0.29 0.82,0.66 0.94,1.12 0.06,0.24 0.09,0.63 0.09,1.18l0 4.33c0,0.73 0.03,1.23 0.1,1.5 0.14,0.55 0.46,0.83 0.96,0.83 0.24,0 0.43,-0.04 0.57,-0.13 0.14,-0.08 0.3,-0.26 0.49,-0.52zm-3.88 -4.6c-0.42,0.35 -0.88,0.66 -1.38,0.93 -0.56,0.31 -0.95,0.53 -1.17,0.69 -0.21,0.16 -0.41,0.35 -0.59,0.56 -0.36,0.45 -0.55,0.98 -0.55,1.58 0,0.51 0.14,0.94 0.42,1.28 0.28,0.33 0.64,0.5 1.07,0.5 0.38,0 0.73,-0.12 1.07,-0.36 0.33,-0.24 0.59,-0.55 0.76,-0.95 0.24,-0.52 0.36,-1.28 0.36,-2.27l0 -1.96zm7.44 -2.58c0.27,-0.49 0.59,-0.86 0.94,-1.1 0.65,-0.46 1.38,-0.69 2.21,-0.69 0.51,0 0.89,0.11 1.16,0.34 0.24,0.2 0.36,0.45 0.36,0.74 0,0.22 -0.07,0.39 -0.22,0.53 -0.14,0.14 -0.33,0.21 -0.55,0.21 -0.27,0 -0.5,-0.11 -0.69,-0.33l-0.36 -0.4c-0.29,-0.3 -0.63,-0.45 -1.02,-0.45 -0.53,0 -0.94,0.34 -1.24,1.03 -0.3,0.68 -0.44,1.63 -0.44,2.86l0 2.18 0.01 0.89c0,0.53 0.03,0.92 0.09,1.16 0.06,0.25 0.18,0.45 0.36,0.61 0.22,0.21 0.62,0.37 1.21,0.48l0 0.24 -5.17 0 0 -0.24c0.47,-0.06 0.8,-0.15 1,-0.26 0.2,-0.11 0.36,-0.3 0.49,-0.57 0.08,-0.18 0.14,-0.45 0.18,-0.81 0.04,-0.36 0.05,-0.88 0.05,-1.56l0 -2.87c0,-0.8 -0.02,-1.36 -0.06,-1.68 -0.04,-0.32 -0.12,-0.58 -0.26,-0.79 -0.13,-0.22 -0.3,-0.37 -0.48,-0.47 -0.19,-0.1 -0.45,-0.16 -0.81,-0.18l0 -0.24 3.02 -0.43c0.14,0.7 0.21,1.29 0.21,1.79zm16.21 0.43l0 4.2c0,0.79 0.04,1.39 0.14,1.77 0.09,0.39 0.26,0.71 0.49,0.96 0.21,0.22 0.45,0.38 0.73,0.49 0.28,0.1 0.64,0.17 1.09,0.19l0 0.26 -7.44 0 0 -0.26c0.45,-0.02 0.81,-0.09 1.09,-0.19 0.28,-0.11 0.52,-0.27 0.73,-0.49 0.25,-0.25 0.41,-0.57 0.5,-0.95 0.08,-0.38 0.13,-0.97 0.13,-1.78l0 -8.62c0,-0.67 -0.03,-1.19 -0.09,-1.55 -0.06,-0.36 -0.16,-0.66 -0.3,-0.88 -0.2,-0.31 -0.46,-0.55 -0.77,-0.7 -0.31,-0.15 -0.72,-0.24 -1.22,-0.28l-0.08 0 0 -0.26 7.03 0c1.23,0 2.13,0.06 2.71,0.19 0.58,0.12 1.12,0.37 1.6,0.75 1.1,0.84 1.65,1.97 1.65,3.36 0,1.43 -0.56,2.47 -1.68,3.13 -0.58,0.34 -1.29,0.55 -2.12,0.62 -0.27,0.02 -0.91,0.04 -1.92,0.04l-2.29 0zm0 -0.36l1.14 0c0.77,0 1.37,-0.06 1.79,-0.17 0.41,-0.11 0.79,-0.32 1.12,-0.63 0.76,-0.69 1.14,-1.62 1.14,-2.78 0,-0.64 -0.11,-1.23 -0.33,-1.76 -0.22,-0.53 -0.54,-0.97 -0.95,-1.31 -0.47,-0.4 -1.04,-0.63 -1.69,-0.7 -0.18,-0.02 -0.59,-0.02 -1.23,-0.02l-0.98 0 0 7.37zm12.06 -8.16l0 7.97c0.27,-0.33 0.51,-0.59 0.73,-0.77 0.21,-0.19 0.46,-0.35 0.76,-0.49 0.57,-0.28 1.21,-0.42 1.94,-0.42 0.92,0 1.68,0.18 2.28,0.55 0.43,0.27 0.72,0.6 0.88,1 0.16,0.39 0.24,0.98 0.24,1.77l0 3.4 0.01 0.89c0,0.53 0.03,0.92 0.09,1.16 0.06,0.25 0.18,0.45 0.36,0.61 0.22,0.21 0.62,0.37 1.21,0.48l0 0.24 -5.17 0 0 -0.24c0.41,-0.06 0.71,-0.12 0.88,-0.2 0.17,-0.08 0.33,-0.21 0.47,-0.39 0.14,-0.2 0.24,-0.46 0.29,-0.8 0.05,-0.34 0.08,-0.83 0.08,-1.48l0 -3.7c0,-0.56 -0.04,-1 -0.13,-1.33 -0.09,-0.33 -0.23,-0.61 -0.43,-0.85 -0.39,-0.46 -0.95,-0.69 -1.67,-0.69 -1.88,0 -2.81,1.49 -2.81,4.46l0 1.87 0.01 0.87c0,0.53 0.03,0.92 0.09,1.16 0.06,0.25 0.18,0.45 0.36,0.61 0.22,0.21 0.61,0.37 1.2,0.48l0 0.24 -5.16 0 0 -0.24c0.47,-0.06 0.8,-0.15 1,-0.26 0.2,-0.11 0.36,-0.3 0.49,-0.57 0.08,-0.18 0.14,-0.45 0.18,-0.81 0.04,-0.36 0.05,-0.88 0.05,-1.57l0 -9.13c0,-0.79 -0.02,-1.35 -0.06,-1.67 -0.04,-0.33 -0.12,-0.59 -0.26,-0.79 -0.13,-0.22 -0.3,-0.37 -0.48,-0.46 -0.19,-0.1 -0.45,-0.15 -0.81,-0.18l0 -0.26 3.37 -0.43zm9.16 6.72l3.37 -0.43 0 6.73 0.01 0.88c0,0.53 0.03,0.91 0.09,1.16 0.06,0.24 0.18,0.45 0.36,0.61 0.22,0.21 0.62,0.37 1.2,0.48l0 0.24 -5.17 0 0 -0.24c0.47,-0.06 0.81,-0.15 1,-0.26 0.2,-0.11 0.37,-0.3 0.49,-0.57 0.09,-0.18 0.15,-0.45 0.18,-0.81 0.04,-0.36 0.05,-0.88 0.05,-1.56l0 -2.87c0,-0.8 -0.02,-1.36 -0.06,-1.68 -0.04,-0.32 -0.12,-0.58 -0.26,-0.79 -0.13,-0.22 -0.3,-0.37 -0.48,-0.47 -0.19,-0.1 -0.45,-0.16 -0.81,-0.18l0 -0.24zm2.44 -4.64c-0.3,0 -0.55,-0.1 -0.75,-0.29 -0.2,-0.2 -0.3,-0.44 -0.3,-0.74 0,-0.29 0.1,-0.53 0.3,-0.73 0.2,-0.2 0.45,-0.3 0.75,-0.3 0.3,0 0.55,0.1 0.75,0.3 0.2,0.2 0.3,0.44 0.3,0.73 0,0.3 -0.1,0.54 -0.3,0.74 -0.2,0.2 -0.45,0.29 -0.75,0.29zm13.24 13.18l0.2 0.12c-0.28,0.82 -0.92,1.23 -1.93,1.23 -0.55,0 -1.01,-0.14 -1.38,-0.41 -0.24,-0.18 -0.49,-0.49 -0.75,-0.94 -0.52,0.47 -0.92,0.77 -1.18,0.93 -0.51,0.28 -1.1,0.42 -1.77,0.42 -0.86,0 -1.54,-0.21 -2.04,-0.62 -0.5,-0.41 -0.75,-0.97 -0.75,-1.67 0,-0.65 0.21,-1.19 0.62,-1.62 0.23,-0.24 0.5,-0.43 0.8,-0.58 0.3,-0.14 0.74,-0.29 1.32,-0.44 0.68,-0.17 1.18,-0.31 1.5,-0.43 0.32,-0.12 0.59,-0.26 0.81,-0.42 0.25,-0.18 0.42,-0.39 0.51,-0.63 0.09,-0.24 0.14,-0.57 0.14,-1 0,-0.91 -0.17,-1.57 -0.51,-1.99 -0.16,-0.2 -0.35,-0.35 -0.6,-0.47 -0.24,-0.12 -0.5,-0.18 -0.76,-0.18 -0.31,0 -0.6,0.08 -0.85,0.25 -0.25,0.16 -0.43,0.39 -0.56,0.68l-0.29 0.68c-0.16,0.37 -0.43,0.55 -0.84,0.55 -0.27,0 -0.49,-0.09 -0.67,-0.26 -0.18,-0.18 -0.27,-0.4 -0.27,-0.66 0,-0.4 0.28,-0.74 0.84,-1.01 0.3,-0.14 0.68,-0.26 1.12,-0.35 0.45,-0.09 0.88,-0.14 1.31,-0.14 0.48,0 0.98,0.06 1.51,0.19 0.52,0.12 0.96,0.28 1.31,0.48 0.5,0.29 0.82,0.66 0.94,1.12 0.06,0.24 0.09,0.63 0.09,1.18l0 4.33c0,0.73 0.03,1.23 0.1,1.5 0.14,0.55 0.46,0.83 0.96,0.83 0.24,0 0.43,-0.04 0.57,-0.13 0.14,-0.08 0.3,-0.26 0.49,-0.52zm-3.88 -4.6c-0.42,0.35 -0.88,0.66 -1.38,0.93 -0.56,0.31 -0.95,0.53 -1.17,0.69 -0.21,0.16 -0.41,0.35 -0.59,0.56 -0.36,0.45 -0.55,0.98 -0.55,1.58 0,0.51 0.14,0.94 0.42,1.28 0.28,0.33 0.64,0.5 1.07,0.5 0.38,0 0.73,-0.12 1.07,-0.36 0.33,-0.24 0.59,-0.55 0.76,-0.95 0.24,-0.52 0.36,-1.28 0.36,-2.27l0 -1.96z"/>
    <polygon class="fil1" points="64.37,13.19 67.07,10.91 65.79,9.43 "/>
   </g>
   <path class="fil1" d="M136.06 7.52c-0.02,-0.11 0.01,-0.35 0.02,-0.45l0.03 -0.8c0.01,-0.24 0.1,-0.65 0.1,-0.73 0.01,-0.2 0.01,-0.34 0.07,-0.51 0.05,-0.15 0.04,-0.33 0.08,-0.47l0.17 -0.67c0.07,-0.31 0.09,-0.28 0.12,-0.43l0.38 -1.03c0.04,-0.07 0.01,-0.01 0.05,-0.11 0.02,-0.04 0.02,-0.06 0.04,-0.1 0.04,-0.08 0.05,-0.08 0.09,-0.17 0.08,-0.19 0.21,-0.37 0.32,-0.55 0.09,-0.15 0.24,-0.33 0.37,-0.44 0.19,-0.15 0.35,-0.22 0.59,-0.12 0.34,0.14 0.64,0.67 0.82,0.98l0.26 0.53c0.19,0.4 0.35,1.03 0.2,1.5 -0.17,0.55 -0.44,1.17 -0.93,1.5 -0.07,0.05 -0.09,0.07 -0.16,0.11l-1.44 0.63c-0.03,0.02 -0.04,0.02 -0.07,0.03 -0.07,0.04 -0.07,0.05 -0.14,0.1 -0.33,0.23 -0.59,0.56 -0.77,0.93 -0.1,0.2 -0.01,0.13 -0.21,0.27zm-0.84 -0.21c0,0.37 -0.02,1.14 0.06,1.46l0.18 0.63c0.07,0.21 0.16,0.37 0.26,0.55 0.05,0.1 0.09,0.15 0.16,0.23 0.07,0.08 0.11,0.15 0.19,0.23 0.25,0.25 0.36,0.36 0.66,0.54 0.06,0.03 0.07,0.04 0.13,0.08 0.06,0.04 0.07,0.05 0.13,0.08 0.42,0.18 0.86,0.3 1.34,0.28 0.38,-0.01 0.78,-0.07 1.13,-0.23 0.06,-0.03 0.09,-0.03 0.15,-0.06l0.38 -0.22c0.29,-0.19 0.51,-0.44 0.71,-0.7 0.48,-0.59 0.66,-1.45 0.66,-2.2l-0.05 -1.91c-0.01,-0.12 -0.04,-0.17 -0.05,-0.27 -0.01,-0.11 -0.02,-0.19 -0.03,-0.28 -0.01,-0.25 -0.05,-0.35 -0.09,-0.56l-0.1 -0.53c-0.02,-0.07 -0.03,-0.18 -0.05,-0.27l-0.44 -1.5c-0.06,-0.21 -0.23,-0.57 -0.32,-0.78 -0.11,-0.27 -0.47,-0.87 -0.65,-1.1l-0.68 -0.61c-0.42,-0.27 -0.9,-0.22 -1.33,0.05 -0.22,0.14 -0.4,0.34 -0.57,0.53 -0.12,0.14 -0.29,0.41 -0.39,0.58l-0.33 0.64c-0.04,0.08 -0.06,0.13 -0.09,0.22 -0.04,0.09 -0.06,0.13 -0.09,0.22 -0.03,0.09 -0.06,0.15 -0.09,0.23 -0.02,0.05 -0.01,0.07 -0.03,0.12 -0.02,0.06 -0.03,0.07 -0.06,0.13l-0.46 1.77c-0.01,0.09 -0.03,0.22 -0.04,0.3 -0.02,0.12 -0.05,0.14 -0.06,0.26 -0.09,0.73 -0.16,1.34 -0.16,2.09z"/>
  </g>
 </g>
</svg>
