<?xml version="1.0" encoding="UTF-8"?>
<!DOCTYPE svg PUBLIC "-//W3C//DTD SVG 1.1//EN" "http://www.w3.org/Graphics/SVG/1.1/DTD/svg11.dtd">
<!-- Creator: CorelDRAW 2021 (64-Bit) -->
<svg xmlns="http://www.w3.org/2000/svg" xml:space="preserve" width="1.33715in" height="1.4784in" version="1.1" style="shape-rendering:geometricPrecision; text-rendering:geometricPrecision; image-rendering:optimizeQuality; fill-rule:evenodd; clip-rule:evenodd"
viewBox="0 0 66.8 73.86"
 xmlns:xlink="http://www.w3.org/1999/xlink"
 xmlns:xodm="http://www.corel.com/coreldraw/odm/2003">
 <defs>
  <style type="text/css">
   <![CDATA[
    .fil1 {fill:url(#id0)}
    .fil0 {fill:url(#id1)}
   ]]>
  </style>
  <linearGradient id="id0" gradientUnits="userSpaceOnUse" x1="23" y1="42.03" x2="30.36" y2="43.4">
   <stop offset="0" style="stop-opacity:1; stop-color:#34044F"/>
   <stop offset="1" style="stop-opacity:1; stop-color:#FF30FF"/>
  </linearGradient>
  <linearGradient id="id1" gradientUnits="objectBoundingBox" xlink:href="#id0" x1="0%" y1="126.319%" x2="86.8964%" y2="154.527%">
  </linearGradient>
 </defs>
 <g id="Layer_x0020_1">
  <metadata id="CorelCorpID_0Corel-Layer"/>
  <g id="_2015428440880">
   <g>
    <path class="fil0" d="M27.43 24.97c-4.59,-1.69 -10.62,-6.74 -14.2,-10.07 -0.65,-0.6 -3.03,-2.95 -3.56,-2.95 -0.55,0 -0.88,0.32 -0.88,0.88 0,1 2.67,2.74 3.38,3.47 1.32,1.35 4.61,3.86 6.29,5.14 3.88,2.97 6.97,4.99 11.76,6.35l12.49 3.52c3.47,0.96 6.96,2.33 10.42,3.3 3.65,1.03 5.05,1.54 8.97,0.22 1.06,-0.36 2,-0.89 2.97,-0.38 -0.07,0.89 -0.74,2.41 -1.16,3.06 -0.58,0.9 -1.22,1.54 -1.96,2.26 -3.91,3.8 -8.23,2.24 -12.36,2.24 -4.21,0 -5.49,-0.09 -9.36,1.19 -5.4,1.78 -11.99,9.77 -16.59,3.84 -3.43,-4.42 -4.56,-9.2 -9.19,-12.97l-2.13 -1.56c-2.39,-1.68 -4.9,-3.29 -7.46,-4.68 -1.68,-0.91 -4.3,-3.54 -4.86,-1.12 0.95,1.09 4.74,3.2 6.01,4.01l7.49 4.82c0.51,0.46 0.79,0.62 1.32,1.14 0.93,0.93 1.39,1.68 2.14,2.79 0.65,0.97 1.35,2.06 1.86,3.06 0.29,0.56 0.54,1.04 0.85,1.61l1.49 2.38c0.76,1.24 1.61,2.47 2.83,3.33 1.6,1.11 4.09,1.41 5.96,0.83 5.66,-1.73 8.46,-7.09 17.53,-7.09 2.63,0 5.62,0.52 7.91,0.54 2.39,0.02 4.84,-1.02 6.3,-1.98 4.91,-3.22 8.04,-11.77 1,-9.38 -4.86,1.65 -5.34,1.2 -10.03,-0.16 -0.6,-0.17 -1.09,-0.28 -1.63,-0.48 -0.39,-0.14 -0.45,-0.17 -0.92,-0.31l-0.79 -0.27c-0.6,-0.22 -0.99,-0.31 -1.59,-0.52l-6.75 -2.05c-4.25,-1.12 -8.65,-2.2 -12.76,-3.77 -0.29,-0.11 -0.56,-0.19 -0.78,-0.28z"/>
    <path class="fil0" d="M29.37 72.1c-1.54,0 -2.56,-0.41 -3.47,-1.1l-14.4 -10.22c-2.71,-1.84 -0.93,-3.62 0.11,-3.62l4.71 2.32c0.48,0.31 0.8,0.51 1.3,0.81 0.61,0.36 3.49,2.28 3.97,2.37 0.62,0.13 2.22,-0.63 0.01,-1.96l-6.53 -4.02c-0.87,-0.51 -1.67,-1.29 -2.93,-1.29 -1.76,0 -3.08,0.68 -3.62,2.37 -0.93,2.94 1.71,4.2 2.77,4.99l11.01 7.8c0.31,0.21 0.53,0.33 0.84,0.56 0.36,0.27 0.44,0.39 0.77,0.63 5,3.62 7.83,1.72 14.67,0.6 1.55,-0.25 2.86,-0.54 4.32,-0.78 3.66,-0.6 4.14,-1.48 6.73,0.48 1.57,1.18 2.62,-0.28 1.02,-1.38 -1.93,-1.32 -2.59,-1.87 -5.22,-1.32 -1.97,0.41 -14.69,2.74 -16.07,2.74z"/>
    <path class="fil0" d="M26.2 63.31c0,-1.72 2.59,-1.97 4.14,-2.36l9.98 -2.86c6.7,-1.85 7.67,-2.32 12.99,1.86 1.38,1.08 5.07,4.48 5.07,1.96 0,-0.72 -4.58,-3.69 -4.98,-3.99 -0.5,-0.38 -0.81,-0.62 -1.32,-0.97 -3.98,-2.72 -5.81,-2.15 -10.28,-1.07l-8.92 2.51c-0.59,0.16 -1.18,0.36 -1.63,0.48l-3.6 0.98c-1.19,0.31 -2.1,0.73 -2.67,1.73l-0.36 0.87c-0.04,0.15 -0.15,0.79 -0.16,0.88 -0.02,0.57 0.2,1.37 0.45,1.79 0.31,0.53 0.61,0.85 1.13,1.15 0.32,0.19 1.1,0.56 1.55,0.56l9.6 -1.31c0.48,-0.1 0.61,-0.28 1.13,-0.28 0.11,0 0.62,0.53 1.1,0.59 0.77,0.09 1.16,-0.62 0.78,-1.4 -0.89,-1.85 -4.25,-0.37 -6.83,-0.09 -3.33,0.36 -7.19,1.8 -7.19,-1.03z"/>
    <path class="fil0" d="M33.41 8.09c0.39,-0.54 2.49,-1.48 2.99,-3.34 1.03,0.27 0.16,0.51 1.53,1.81 0.55,0.52 1.21,0.95 1.81,1.36 -0.37,0.5 -1.27,0.91 -1.79,1.38 -0.22,0.2 -0.54,0.64 -0.69,0.89 -0.24,0.41 -0.31,0.64 -0.69,0.89 -1.15,-0.85 -0.09,-1.36 -3.17,-2.99zm-4.22 -0.18c0,1.26 1.59,0.63 3.73,1.73 2.15,1.1 2.34,3.09 2.68,4.71 0.12,0.57 0.32,0.93 0.45,1.48l1.06 0c0.64,-1.21 0.59,-3.84 1.97,-5.24 2.26,-2.29 4.89,-1.11 4.89,-2.67 0,-1.42 -3.25,-0.53 -4.96,-2.6 -1.79,-2.17 -0.91,-4.41 -2.25,-5.31 -1.15,0.27 -0.86,0.54 -1.28,2.59 -0.14,0.66 -0.76,2.15 -1.21,2.65 -2.03,2.28 -5.06,1.29 -5.06,2.67z"/>
    <path class="fil0" d="M49.41 19.7c1.26,1.89 0.93,0.46 1.23,1.58 -0.7,0.19 -0.8,0.65 -1.41,1.06l-1.27 -1.27 1.45 -1.37zm-4.92 1.41c0,1.47 2.82,-0.06 3.74,3.12 0.11,0.37 0.32,1.47 0.48,1.8 2.42,0.56 0.68,-2.26 2.79,-3.54 1.33,-0.81 2.35,-0.22 2.66,-1.56 -0.71,-1.06 -2.24,-0.55 -3.22,-1.71 -1.18,-1.39 -0.07,-2.53 -1.71,-3.39 -0.82,0.55 -0.6,0.61 -0.86,1.6 -1.03,3.99 -3.89,2.05 -3.89,3.67z"/>
    <path class="fil1" d="M31.38 39.5c-0.36,-1.05 -2.18,0.05 -4.16,-0.78 -2.28,-0.95 -2.15,-2.67 -3.13,-2.67 -0.85,0 -0.88,0.39 -0.88,1.06 0,0.29 0.66,1.19 0.85,1.44 1.48,1.88 3.58,2.26 5.83,2.26 1.16,0 1.74,-0.56 1.49,-1.3z"/>
   </g>
  </g>
 </g>
</svg>
