<?xml version="1.0" encoding="UTF-8"?>
<!DOCTYPE svg PUBLIC "-//W3C//DTD SVG 1.1//EN" "http://www.w3.org/Graphics/SVG/1.1/DTD/svg11.dtd">
<!-- Creator: CorelDRAW 2021 (64-Bit) -->
<svg xmlns="http://www.w3.org/2000/svg" xml:space="preserve" width="2.34296in" height="1.31682in" version="1.1" style="shape-rendering:geometricPrecision; text-rendering:geometricPrecision; image-rendering:optimizeQuality; fill-rule:evenodd; clip-rule:evenodd"
viewBox="0 0 137.53 77.3"
 xmlns:xlink="http://www.w3.org/1999/xlink"
 xmlns:xodm="http://www.corel.com/coreldraw/odm/2003">
 <defs>
  <style type="text/css">
   <![CDATA[
    .fil0 {fill:url(#id0)}
   ]]>
  </style>
  <linearGradient id="id0" gradientUnits="userSpaceOnUse" x1="66.6" y1="17.31" x2="111.85" y2="85.18">
   <stop offset="0" style="stop-opacity:1; stop-color:#34044F"/>
   <stop offset="1" style="stop-opacity:1; stop-color:#FF30FF"/>
  </linearGradient>
 </defs>
 <g id="Layer_x0020_1">
  <metadata id="CorelCorpID_0Corel-Layer"/>
  <path class="fil0" d="M58.18 66.83c-0.55,0.35 -1.5,0.96 -2.12,0.96 -0.53,0 -0.74,-0.12 -1,-0.26 -0.08,-0.04 -0.16,-0.09 -0.27,-0.13 -0.36,-0.16 -0.77,-0.26 -1.13,-0.44 -0.15,-0.09 -0.28,-0.14 -0.4,-0.19 -0.2,-0.09 -0.37,-0.17 -0.63,-0.35l-0.87 -0.6 -0.01 0c-0.07,0.04 -0.1,0.05 -0.16,0.07 -0.05,0.01 -0.09,0.01 -0.17,0.01 0,0.33 0,0.35 0.02,0.36 0.05,0.05 0.13,0.12 0.24,0.3l1.8 2.56c0.83,0.82 1.94,0.38 2.88,0.02 0.32,-0.12 0.62,-0.24 0.89,-0.31l0.38 -0.08c0.16,-0.03 0.25,-0.05 0.49,-0.17 0.5,-0.26 0.94,-0.42 1.37,-0.58 0.87,-0.33 1.74,-0.65 3.24,-1.88 0.62,-0.51 1.14,-0.94 1.56,-1.42 0.42,-0.48 0.75,-1.02 1.02,-1.78l0.13 -0.33c0.16,-0.38 0.29,-0.67 -0.06,-1.32l-0.09 -0.18c-0.09,-0.2 -0.15,-0.31 -0.92,0.03 -0.23,0.1 -0.44,0.16 -0.63,0.22 -0.42,0.12 -0.78,0.23 -1.13,0.8 -0.21,0.35 -0.53,0.82 -0.77,1.16 -0.46,0.61 -1.11,1.37 -1.79,2.04 -0.58,0.57 -1.19,1.1 -1.74,1.44l-0.11 0.07zm-6.73 -6.26c-0.04,-0.04 -0.05,-0.07 -0.07,-0.14 -0.19,0.04 -0.41,0.12 -0.61,0.24 -0.13,0.08 -0.25,0.18 -0.34,0.3 -0.07,0.1 -0.12,0.21 -0.11,0.33 0,0.09 0.03,0.19 0.09,0.29l1.49 1.79 1.82 1.45c0.27,0.15 0.9,0.47 1.44,0.7 0.34,0.14 0.64,0.25 0.76,0.25 0.49,0 1.48,-0.78 2,-1.19l0.16 -0.12 1.44 -1.39c0.09,-0.1 0.16,-0.16 0.21,-0.19l-0 -0.12c-0.2,-0.01 -0.48,-0 -0.8,0.01 -0.73,0.02 -1.67,0.06 -2.66,-0.14 -0.16,-0.03 -0.26,-0.07 -0.37,-0.11l-0.2 -0.07 -0.79 -0.23c-1.06,-0.31 -1.95,-0.56 -3.19,-1.48 -0.11,-0.08 -0.13,-0.08 -0.14,-0.09l-0.01 -0c-0.05,-0.01 -0.08,-0.02 -0.13,-0.07l-0.01 -0.01zm41.42 -9.53l-0.7 -0.02 0.04 0.02c0.18,0.1 0.42,0.24 0.97,0.4 0.36,0.11 0.4,0.13 0.51,0.21l0.18 0.11c0.11,0.06 0.2,0.1 0.28,0.14l0.28 0.13c0.14,0.07 0.16,0.08 0.19,0.11l0.12 0.08 5.11 2.72c0.12,0.05 0.25,0.13 0.38,0.2 0.13,0.07 0.26,0.15 0.37,0.2l-0.1 -0.08 -3.53 -3.03c-0.28,-0.23 -0.47,-0.41 -0.62,-0.55 -0.48,-0.45 -0.5,-0.46 -1.77,-0.56 -0.56,-0.04 -1.13,-0.07 -1.71,-0.09zm7.85 4.36c0.01,0.01 0.01,0.02 0.02,0.01l-0.02 -0.01zm-35.88 -13.27c0.35,0.07 0.74,0.1 0.97,0.1 1.9,0 4.07,-0.11 6.11,-0.59 2.02,-0.48 3.9,-1.32 5.25,-2.79 0.38,-0.42 0.47,-0.62 0.39,-0.69 -0.17,-0.16 -0.81,-0.14 -1.41,-0.11l-0.58 0.02c-0.78,0 -1.54,0.04 -2.27,0.08 -0.88,0.05 -1.73,0.09 -2.51,0.06 -0.16,-0.01 -0.42,0.04 -0.67,0.09l-0.29 0.05c-0.44,0.07 -0.74,0.07 -1.18,0.07 -1.68,-0.01 -3.47,0.05 -5.14,0.11 -0.3,0.01 -0.44,0.02 -0.44,0.05 -0.03,0.11 0.01,0.37 0.09,0.86l0.09 0.55c0.06,0.39 0.19,0.86 0.4,1.26 0.16,0.3 0.35,0.56 0.58,0.7 0.13,0.08 0.36,0.14 0.62,0.19zm-16 17.14l0.1 0.2c0.27,-0.03 0.45,-0.09 0.58,-0.17 0.14,-0.09 0.24,-0.24 0.35,-0.46l-0.17 -0.26c-0.2,-0.29 -0.49,-0.64 -0.59,-0.74 -4.51,-4.66 -12.74,-15.65 -17.13,-21.07l-0.1 -0.11c-0.12,-0.13 -0.21,-0.23 -0.35,-0.4l-5.35 -6.66c-0.11,-0.14 -0.21,-0.25 -0.29,-0.35 -0.15,-0.17 -0.26,-0.3 -0.41,-0.55 -0.37,0.1 -0.59,0.21 -0.7,0.35 -0.1,0.12 -0.13,0.29 -0.14,0.52 0.18,0.07 0.23,0.14 0.32,0.27l0.09 0.12c0.88,1.06 1.81,2.23 2.74,3.41 1.3,1.65 2.62,3.31 3.86,4.73 0.65,0.74 1.86,2.28 3.11,3.87 1.48,1.89 3.02,3.84 3.69,4.55 2.85,2.97 8.25,9.56 10.38,12.75zm33.84 -28.67c0.43,-0.03 0.81,-0.06 1.07,-0.17l0.31 -0.14c0.18,-0.09 0.22,-0.11 0.69,-0.19l1.62 -0.7c0.33,-0.19 0.92,-0.55 1.14,-0.87 -0.66,-0.33 -1.72,-0.38 -2.57,-0.41 -0.28,-0.01 -0.53,-0.02 -0.73,-0.04 -1.01,-0.09 -2.13,-0.24 -3.15,-0.37l-0.58 -0.08c-0.31,-0.04 -0.61,-0.05 -0.89,-0.06 -0.34,-0.01 -0.67,-0.02 -1.01,-0.08 -0.75,-0.13 -1.68,-0.21 -2.56,-0.28 -1.16,-0.09 -2.26,-0.18 -2.89,-0.4 -0.1,0.13 -0.21,0.29 -0.21,0.43 0,0.58 0.01,1.17 0.11,1.66 0.1,0.46 0.29,0.86 0.64,1.09 0.49,0.32 1.86,0.47 2.97,0.6 0.5,0.06 0.96,0.11 1.27,0.16 1.1,0.21 1.22,0.21 1.9,0.2l0.97 -0.01c0.18,0 0.27,-0.03 0.37,-0.08 0.12,-0.05 0.27,-0.11 0.54,-0.15 0.35,-0.06 0.67,-0.08 0.97,-0.1zm-66.38 0.81c-0.17,0.14 -0.25,0.2 -0.38,0.26 0.12,0.28 0.29,0.57 1.24,0.57 0.8,0 1.34,-0.48 1.81,-0.89 2.33,-2.03 4.99,-4.03 7.42,-5.98l0.67 -0.52c0.95,-0.73 2.17,-1.67 2.57,-2.51 0.18,-0.38 0.25,-0.7 0.25,-0.97 0,-0.19 -0.04,-0.35 -0.1,-0.46 -0.05,-0.1 -0.12,-0.16 -0.18,-0.19l-0.06 -0.02c-0.17,0 -1.44,1.12 -1.9,1.53l-0.28 0.25 -2.89 2.28c-0.31,0.25 -0.52,0.42 -0.81,0.67 -1.39,1.16 -2.78,2.28 -4.2,3.41 -0.89,0.87 -2.16,1.78 -3.14,2.58zm80.74 -10.71c-0.25,-0.04 -0.51,-0.07 -0.73,-0.14 -0.21,-0.06 -0.35,-0.11 -0.48,-0.16 -0.19,-0.07 -0.36,-0.14 -0.78,-0.21 -1.67,-0.33 -3.51,-0.87 -5.18,-1.29 -0.36,-0.11 -0.71,-0.16 -1.11,-0.21l-0.26 -0.03c-0.14,-0.02 -0.33,-0.08 -0.53,-0.15 -0.27,-0.09 -0.57,-0.19 -0.79,-0.19 -0.12,0 -0.21,0.06 -0.21,0.23l-0 0.18c-0.01,0.62 -0.02,1.57 0.79,1.89 1.05,0.41 1.84,0.46 2.64,0.5 0.39,0.02 0.78,0.05 1.2,0.11 1.76,0.26 2.12,0.21 2.95,0.1 0.34,-0.04 0.76,-0.1 1.34,-0.14l0.4 -0.02c0.53,-0.03 0.97,-0.05 1.11,-0.41l-0.37 -0.06zm-93.47 -16.93c-0.52,0.55 -0.79,1.05 -1.14,1.71l-0.63 2.39c0.01,0.41 0.12,0.97 0.3,1.53 0.2,0.62 0.46,1.23 0.72,1.67l0.15 0.23c0.07,0.11 0.15,0.22 0.26,0.43l4.19 6.84c0.15,0.2 0.22,0.33 0.3,0.49l0.15 0.27c0.13,0.23 0.26,0.41 0.37,0.59 0.15,0.22 0.3,0.44 0.46,0.74 1.72,2.78 3.64,5.67 5.23,8.5 0.36,0.65 0.54,0.96 0.81,0.88 0.36,-0.11 0.96,-0.62 2.09,-1.59 1.22,-1.04 2.43,-2 3.69,-3 1,-0.92 2.85,-2.39 4.38,-3.61l1.71 -1.37 1.61 -1.24 -10.74 -10.42c-0.23,-0.2 -0.32,-0.28 -0.46,-0.43l-1.36 -1.31c-0.4,-0.37 -0.84,-0.81 -1.29,-1.26 -1.45,-1.44 -3.1,-3.09 -4.58,-3.55 -0.2,-0.06 -0.3,-0.1 -0.39,-0.14 -0.12,-0.05 -0.2,-0.08 -0.49,-0.14 -0.43,-0.08 -0.87,-0.13 -1.31,-0.11 -0.38,0.01 -0.75,0.07 -1.11,0.19 -0.61,0.21 -1.11,0.38 -1.57,0.62 -0.45,0.24 -0.88,0.56 -1.35,1.06zm14.38 30.27c-0.39,0.08 -0.79,0.09 -1.39,0.09 -0.57,0 -1.11,-0.21 -1.59,-0.52 -0.57,-0.38 -1.05,-0.91 -1.4,-1.43l-3.46 -5.59 -0.15 -0.22c-0.05,-0.07 -0.1,-0.13 -0.19,-0.29 -0.91,-1.5 -1.85,-2.98 -2.78,-4.46 -0.14,-0.2 -0.18,-0.28 -0.22,-0.38 -0.03,-0.06 -0.06,-0.13 -0.12,-0.25 -0.51,-0.93 -1.1,-1.84 -1.68,-2.75 -0.48,-0.75 -0.96,-1.51 -1.4,-2.25l-0.05 -0.09c-0.1,-0.17 -0.19,-0.33 -0.3,-0.49l-0.14 -0.19c-0.06,-0.07 -0.1,-0.12 -0.21,-0.32l-0.13 -0.24c-0.06,-0.11 -0.1,-0.18 -0.21,-0.34l-1.33 -2.25c-0.07,-0.1 -0.1,-0.14 -0.13,-0.17 -0.06,-0.07 -0.1,-0.12 -0.22,-0.34 -0.09,-0.17 -0.21,-0.45 -0.32,-0.72 -0.09,-0.22 -0.17,-0.44 -0.21,-0.6 -0.13,-0.52 -0.25,-1.13 -0.31,-1.73 -0.04,-0.5 -0.04,-0.98 0.03,-1.4 0.13,-0.73 0.25,-1.3 0.43,-1.84 0.18,-0.55 0.43,-1.06 0.82,-1.67 0.34,-0.46 0.81,-1.09 1.18,-1.51 0.33,-0.33 0.86,-0.71 1.42,-1.03 0.54,-0.31 1.11,-0.56 1.58,-0.67 0.2,-0.05 0.34,-0.07 0.48,-0.09l0.6 -0.12c0.38,-0.09 0.76,-0.17 1.21,-0.17 0.65,0 1.54,0.13 2.38,0.37 0.75,0.21 1.47,0.49 1.95,0.83 0.41,0.29 0.75,0.61 1.1,0.93 0.24,0.23 0.49,0.46 0.76,0.68 0.98,0.78 1.87,1.67 2.76,2.57 0.55,0.55 1.1,1.09 1.65,1.61l2.83 2.65c0.38,0.35 0.75,0.72 1.12,1.09 0.64,0.64 1.28,1.28 1.98,1.86 0.88,0.94 2.64,2.63 3.62,3.43 0.29,0.3 0.68,0.64 1.07,1.01 0.75,0.68 1.56,1.42 2,2.03l0.06 0.08c0.31,0.43 0.4,0.55 0.51,1.26 0.08,0.49 0.14,1.02 0.13,1.54 -0.02,0.53 -0.13,1.05 -0.4,1.51 -0.48,0.79 -1.02,1.22 -1.64,1.72l-0.56 0.46c-0.1,0.09 -0.22,0.2 -0.32,0.29 -0.15,0.13 -0.34,0.25 -0.53,0.38 -0.52,0.36 -1.14,0.78 -1.21,1.22l3.05 3.79c0.19,0.25 0.39,0.5 0.6,0.74l1.5 1.85c2.98,3.56 5.8,7.51 8.83,10.92 0.13,0.17 0.25,0.29 0.37,0.42 0.13,0.13 0.27,0.27 0.41,0.46l5.13 6.4 0.39 0.45c0.75,0.93 1.5,1.86 2.23,2.8 0.81,1.05 2.13,2.75 2.74,3.34l0.93 0.69c0.81,0.39 1.69,0.73 2.52,1.09 0.15,0.04 0.24,0.08 0.33,0.12 0.07,0.03 0.14,0.06 0.27,0.11 0.73,0.24 1.59,0.27 2.44,0.16 1.01,-0.13 2.02,-0.44 2.82,-0.82l12.31 -4.26c0.15,-0.05 0.22,-0.09 0.29,-0.13 0.07,-0.04 0.14,-0.08 0.26,-0.13 0.21,-0.09 0.36,-0.12 0.52,-0.15l0.19 -0.04c0.31,-0.07 0.42,-0.13 0.52,-0.19 0.14,-0.08 0.29,-0.16 0.7,-0.25l0.29 -0.06c0.11,-0.02 0.16,-0.03 0.34,-0.1l1.75 -0.63c0.23,-0.09 0.45,-0.15 0.66,-0.21 0.2,-0.05 0.39,-0.11 0.6,-0.19l5.58 -1.91c0.14,-0.06 0.17,-0.09 0.2,-0.11 0.06,-0.05 0.12,-0.09 0.35,-0.18 0.25,-0.09 0.43,-0.11 0.59,-0.12 0.19,-0.02 0.36,-0.03 0.66,-0.23l0.2 -0.13c-1.44,0.02 -2.82,0.1 -4.2,0.17 -1.62,0.09 -3.22,0.18 -4.88,0.18l-3.31 -0.41c-0.53,-0.07 -1.11,-0.18 -1.67,-0.32 -0.47,-0.12 -0.93,-0.28 -1.33,-0.46l-0.51 -0.22c-0.26,-0.11 -0.51,-0.21 -0.81,-0.37l-1.15 -0.65c-0.52,-0.32 -1.16,-0.81 -1.75,-1.34 -0.5,-0.45 -0.97,-0.94 -1.27,-1.37 -0.12,-0.17 -0.25,-0.42 -0.41,-0.7 -0.32,-0.59 -0.71,-1.29 -0.99,-1.41 -0.37,-0.16 -0.67,-0.17 -0.95,-0.19 -0.54,-0.03 -1.02,-0.05 -1.82,-0.86 -0.15,-0.15 -0.35,-0.37 -0.51,-0.6 -0.13,-0.17 -0.23,-0.36 -0.29,-0.54l-0.4 -1.52c-0.15,-0.52 -0.23,-1.16 -0.24,-1.8 -0.01,-0.64 0.04,-1.28 0.17,-1.81l0.03 -0.14 0.14 -0.03c1.03,-0.24 2.58,-0.21 4.09,-0.18 1.14,0.02 2.25,0.05 3.09,-0.05 1.06,-0.12 2.25,-0.11 3.43,-0.1 1.26,0.01 2.52,0.02 3.59,-0.13 0.31,-0.04 0.41,-0.07 0.41,-0.08 -0.01,-0.06 -0.1,-0.18 -0.21,-0.32 -0.3,-0.4 -0.61,-0.92 -0.84,-1.35 -0.33,-0.75 -0.55,-1.25 -0.7,-1.6 -0.18,-0.43 -0.26,-0.61 -0.31,-0.67 -0.01,-0.01 -0.01,0.01 -0.03,0.01 -0.19,-0.01 -0.55,-0.03 -1.4,-0.59 -0.19,-0.12 -0.36,-0.26 -0.52,-0.42 -0.16,-0.16 -0.31,-0.35 -0.43,-0.57l-0.03 -0.05c-0.29,-0.5 -0.39,-0.67 -0.44,-1.39l-0.04 -0.49c-0.09,-1.13 -0.15,-1.91 -0.11,-2.45 0.08,-1.19 0.55,-1.34 1.95,-1.24 1.05,0.07 2.1,0.21 3.14,0.34 1.44,0.18 2.86,0.37 4.22,0.37 0.55,0 0.94,0.1 1.32,0.2 0.33,0.08 0.65,0.16 1.05,0.17 0.51,0.01 0.89,0.03 1.28,0.06 0.38,0.02 0.76,0.05 1.23,0.06 0.48,0.01 0.84,0.1 1.2,0.19 0.35,0.09 0.71,0.17 1.16,0.18 0.45,0 0.81,0.03 1.18,0.06 0.32,0.02 0.65,0.05 1.04,0.06 -0.04,-0.1 -0.11,-0.17 -0.2,-0.26l-0.29 -0.29c-0.68,-0.73 -1.1,-1.66 -1.5,-2.55l-0.29 -0.63c-0.08,-0.17 -0.18,-0.29 -0.3,-0.39 -0.13,-0.11 -0.29,-0.2 -0.47,-0.29 -0.32,-0.2 -0.66,-0.45 -0.93,-0.72l-0.04 -0.05 -0.58 -1.01c-0.07,-0.18 -0.13,-0.4 -0.16,-0.64 -0.04,-0.26 -0.06,-0.54 -0.06,-0.79 0,-0.62 0.03,-1.07 0.14,-1.48 0.11,-0.42 0.3,-0.8 0.61,-1.26l0.09 -0.13 0.16 0.04c0.21,0.05 0.47,0.09 0.71,0.13 1.75,0.31 3.86,0.77 5.55,1.24 0.32,0.1 0.53,0.13 0.75,0.16 0.31,0.04 0.63,0.09 1.28,0.32 0.19,0.07 0.4,0.11 0.65,0.16 0.36,0.07 0.8,0.16 1.33,0.35 0.22,0.08 0.49,0.12 0.73,0.15l0.33 0.05c0.4,0.08 0.49,0.12 0.63,0.19 0.06,0.03 0.14,0.07 0.29,0.13 0.19,0.07 0.37,0.1 0.55,0.13 0.16,0.03 0.32,0.05 0.5,0.1l2.84 0.85c0.61,0.14 1.21,0.32 1.8,0.49 0.7,0.21 1.4,0.41 2.13,0.56 0.26,0.05 0.43,0.13 0.61,0.2 0.11,0.05 0.23,0.1 0.38,0.15 0.14,0.04 0.28,0.06 0.43,0.07 0.18,0.02 0.37,0.04 0.58,0.11 0.17,0.06 0.29,0.11 0.4,0.17 0.14,0.07 0.28,0.14 0.52,0.18 0.95,0.19 2.06,0.52 3.17,0.85 0.95,0.28 1.89,0.57 2.73,0.76 0.52,0.12 1.23,0.31 1.9,0.52 0.56,0.18 1.09,0.37 1.48,0.55l0.07 0.05 16.97 17.28c0.24,0.23 0.36,0.4 0.55,0.64l0.07 0.09c0.09,0.11 0.24,0.28 0.41,0.47 0.52,0.57 1.23,1.36 1.23,1.76l0.01 0.35c0,0.47 -0.08,0.95 -0.71,0.95 -0.72,0 -1.74,-1.33 -2.42,-2.21 -0.17,-0.23 -0.32,-0.42 -0.43,-0.55l-4.79 -5.42c-0.44,-0.48 -0.88,-0.99 -1.31,-1.49 -0.71,-0.82 -1.42,-1.64 -2.17,-2.38l-4.11 -4.14c-0.88,-0.88 -1.79,-1.8 -2.72,-2.55l-0.27 -0.22c-0.34,-0.29 -0.79,-0.65 -1.04,-0.78l-2.5 -0.9c-0.15,-0.04 -0.3,-0.06 -0.45,-0.09 -0.15,-0.02 -0.29,-0.04 -0.45,-0.09 -0.2,-0.05 -0.32,-0.11 -0.45,-0.16 -0.12,-0.05 -0.24,-0.1 -0.43,-0.15 -0.82,-0.21 -2.34,-0.48 -3.12,-0.83 -0.66,-0.24 -1.36,-0.41 -2.06,-0.58l-1 -0.25c-0.23,-0.06 -0.35,-0.12 -0.47,-0.18 -0.1,-0.05 -0.2,-0.1 -0.39,-0.15 -0.16,-0.04 -0.33,-0.07 -0.48,-0.09 -0.15,-0.02 -0.29,-0.04 -0.42,-0.08 -0.29,-0.08 -0.39,-0.14 -0.48,-0.2 -0.06,-0.04 -0.12,-0.08 -0.36,-0.13 -0.17,-0.04 -0.3,-0.05 -0.42,-0.06 -0.16,-0.01 -0.31,-0.03 -0.52,-0.09 -0.19,-0.06 -0.33,-0.13 -0.46,-0.19 -0.11,-0.06 -0.22,-0.11 -0.38,-0.15 -0.18,-0.05 -0.33,-0.07 -0.49,-0.09 -0.12,-0.02 -0.24,-0.03 -0.4,-0.06 -0.56,-0.11 -0.86,-0.25 -1.07,-0.35 -0.37,-0.17 -0.39,-0.18 -1.96,0.72 -0.32,0.18 -0.71,0.28 -1.11,0.37 -0.23,0.05 -0.46,0.11 -0.67,0.18 -0.33,0.11 -1.05,0.18 -1.81,0.22 -0.93,0.04 -1.95,0.03 -2.43,-0.03 -0.33,-0.04 -0.67,-0.03 -1.02,-0.02 -0.4,0.01 -0.81,0.02 -1.2,-0.04l-0.17 -0.04c-0.2,-0.05 -0.52,-0.12 -0.63,-0.01 -0.02,0.02 -0.11,-0.09 -0.08,-0.05 0.04,0.04 0.08,0.1 0.11,0.19 0.06,0.19 0.15,0.39 0.3,0.64 0.16,0.26 0.39,0.57 0.75,0.94 0.39,0.42 0.76,0.81 1.15,1.21 0.17,0.17 0.45,0.43 0.72,0.64 0.17,0.13 0.33,0.25 0.44,0.31l3.92 0.56c0.35,0.05 0.81,0.07 1.24,0.09 0.32,0.01 0.62,0.03 0.86,0.05l0.76 0.07c0.45,0.03 0.81,0.06 1.29,0.16l4.09 0.41 1.2 0.11c1.87,0.16 3.89,0.34 5.51,1.27 1.06,0.61 1.91,1.62 2.67,2.54l0.22 0.27c2.63,2.88 5.3,5.74 7.91,8.64l0.27 0.31 2.67 2.93c0.6,0.76 1.33,1.53 2.05,2.3 0.59,0.62 1.17,1.25 1.71,1.89l1.59 1.74c1.13,1.23 1.21,1.55 0.8,1.92 -0.07,0.07 -0.16,0.13 -0.26,0.2 -0.11,0.08 -0.24,0.17 -0.38,0.29l-0.13 0.12 -0.38 -0.24c-0.15,-0.09 -0.32,-0.19 -0.44,-0.28l-0.55 -0.55c-0.11,-0.12 -0.19,-0.22 -0.28,-0.32l-0.22 -0.26c-1.13,-1.21 -2.2,-2.48 -3.29,-3.73 -3.41,-3.24 -7.99,-8.75 -11.2,-12.23l-0.48 -0.59 -1.93 -2.11c-0.55,-0.55 -1.19,-1.04 -1.89,-1.4 -0.62,-0.31 -1.28,-0.52 -1.98,-0.57 -0.3,-0.02 -0.53,-0.02 -0.73,-0.03 -0.38,-0 -0.71,-0.01 -1.19,-0.11 -0.54,-0.12 -1.13,-0.2 -1.74,-0.25 -0.63,-0.05 -1.27,-0.08 -1.91,-0.09 -0.62,-0.01 -1.21,-0.13 -1.81,-0.24 -0.58,-0.11 -1.17,-0.23 -1.76,-0.24 -1.1,-0.03 -1.9,-0.16 -2.87,-0.31l-0.78 -0.12c-0.57,-0.08 -1.21,-0.12 -1.86,-0.15 -0.64,-0.03 -1.29,-0.07 -1.88,-0.15 -0.4,-0.06 -0.71,-0.11 -0.96,-0.16 -0.46,-0.08 -0.71,-0.12 -0.87,-0.07 -0.17,0.05 -0.34,0.24 -0.68,0.63 -0.19,0.22 -0.39,0.46 -0.6,0.67 -0.48,0.49 -1.07,0.81 -1.64,1.13 -0.78,0.43 -2.07,0.82 -2.93,1.13 -0.56,0.15 -1.09,0.26 -1.62,0.34 -0.53,0.08 -1.06,0.13 -1.62,0.17 -1.67,0.11 -2.22,0.05 -2.81,-0.03 -0.37,-0.05 -0.76,-0.09 -1.49,-0.09 -0.27,0 -0.42,0 -0.44,0.02 -0.03,0.02 0.06,0.02 0.09,0.11 0.2,0.63 0.52,1.13 0.87,1.66l0.15 0.24c0.15,0.24 0.46,0.68 0.77,1.03 0.19,0.22 0.39,0.4 0.53,0.46 0.41,0.18 7.51,0.1 10.5,0.07l1.22 -0.01c0.5,-0 0.88,0.03 1.25,0.07 0.32,0.03 0.63,0.06 1.01,0.06 1.14,0 2.32,0.01 3.49,0.05 1.18,0.03 2.35,0.09 3.44,0.18 0.79,0.07 1.63,0.04 2.47,0.02 1.81,-0.05 3.67,-0.1 5.27,0.66l0.79 0.4 0.05 0.04 14.55 12.81c0.18,0.15 0.25,0.23 0.32,0.3 0.06,0.07 0.12,0.13 0.29,0.27 0.23,0.19 0.44,0.38 0.65,0.57 0.2,0.18 0.4,0.37 0.6,0.57l2.47 2.27 0.12 0.1c0.47,0.39 0.87,0.73 0.93,1.47l0.01 0.12 -0.8 0.67 -0.1 0.11 -0.02 -0.01 -0.04 0.03 -0.04 -0.07 -0.06 -0.03c-0.93,-0.49 -1.76,-1.3 -2.53,-2.05l-0.37 -0.36c-5.67,-5.29 -11.19,-10.16 -17.03,-15.16 -1.11,-0.71 -2.28,-0.71 -3.58,-0.71l-0.65 -0c-0.35,-0 -0.56,-0.03 -0.77,-0.07 -0.21,-0.03 -0.42,-0.06 -0.77,-0.06l-0.74 0c-0.9,0.01 -1.81,0.01 -2.54,-0.09 -0.26,-0.04 -0.53,-0.04 -0.8,-0.04 -0.29,0 -0.59,-0 -0.9,-0.05 -1.3,-0.19 -1.77,-0.13 -2.16,-0.09 -0.26,0.03 -0.48,0.05 -0.84,0.01 -1.88,-0.22 -6.7,-0.16 -10.22,-0.13l-2.86 0.02c-0.2,0 -0.31,0.03 -0.42,0.05l-0.2 0.04c-0.07,0.41 -0.25,0.83 -0.49,1.21 -0.34,0.54 -0.79,1.04 -1.2,1.4 -0.38,0.33 -0.78,0.66 -1.2,0.96 -0.42,0.29 -0.88,0.55 -1.38,0.73l-0.72 0.33c-0.28,0.14 -0.4,0.17 -0.63,0.22l-0.25 0.05c-0.26,0.06 -0.42,0.13 -0.57,0.2 -0.25,0.11 -0.5,0.22 -1.1,0.29l-0.43 0.06 -0.47 0.09c-0.16,0.04 -0.26,0.07 -0.36,0.11 -0.13,0.05 -0.27,0.09 -0.47,0.13 -0.48,0.1 -1.05,0.07 -1.56,0.05 -0.51,-0.03 -0.96,-0.05 -1.11,0.05 -0.06,0.04 -0.01,0.18 0.2,0.49 0.24,0.35 0.51,0.69 0.8,1.02 0.26,0.3 0.54,0.58 0.84,0.83 0.13,0.11 0.26,0.21 0.38,0.32l1.18 0.8 0.28 0.15c0.61,0.34 1.18,0.65 1.86,0.82 0.27,0.07 0.41,0.13 0.56,0.2l0.24 0.1c2.32,0.82 6.23,0.67 9.31,0.55 0.98,-0.04 1.88,-0.07 2.61,-0.07l5.11 -0.12c0.39,0 0.62,0.03 0.84,0.07 0.2,0.03 0.4,0.06 0.7,0.06l0.97 -0c0.86,-0.01 1.74,-0.02 2.42,0.1 0.92,0.15 2.09,1.24 2.99,2.07 0.22,0.2 0.42,0.39 0.62,0.56l3.24 2.82 0.25 0.23 2.77 2.34 0.64 0.58c0.46,0.43 0.93,0.87 1.44,1.22l2.21 1.21c0.22,0.1 0.29,0.14 0.37,0.2l0.17 0.11c0.13,0.07 0.21,0.11 0.31,0.15 2.16,0.95 4.34,2.32 6.48,3.39 0.42,0.21 0.65,0.49 0.75,0.77 0.07,0.18 0.08,0.37 0.04,0.54 -0.03,0.17 -0.11,0.32 -0.22,0.44 -0.15,0.16 -0.36,0.27 -0.58,0.27 -0.22,0 -0.61,-0.15 -1.03,-0.35 -0.66,-0.31 -1.42,-0.76 -1.74,-0.95l-7.56 -3.97c-0.11,-0.06 -0.19,-0.09 -0.27,-0.12 -0.64,-0.25 -1.31,-0.67 -1.92,-1l-0.17 -0.07c-0.06,-0.02 -0.12,-0.04 -0.25,-0.11l-10.1 -5.36c-0.39,-0.17 -0.77,-0.38 -1.13,-0.59 -0.44,-0.25 -0.89,-0.51 -1.37,-0.68 -0.64,-0.23 -1.25,-0.31 -1.87,-0.3 -0.62,0 -1.26,0.09 -1.93,0.18 -0.4,0.06 -0.6,0.15 -0.82,0.24 -0.16,0.07 -0.33,0.15 -0.57,0.22 -0.25,0.07 -0.45,0.15 -0.65,0.22 -0.25,0.09 -0.49,0.18 -0.79,0.26l-2.82 0.98c-0.22,0.06 -0.4,0.14 -0.58,0.22 -0.24,0.1 -0.48,0.21 -0.84,0.29l-0.31 0.06c-0.14,0.02 -0.22,0.04 -0.4,0.12 -0.7,0.32 -1.4,0.52 -1.99,0.7 -0.37,0.11 -0.7,0.2 -0.95,0.3 -0.79,0.29 -1.59,0.63 -2.39,0.86 -0.14,0.04 -0.29,0.08 -0.43,0.13l-4.27 1.45c-0.17,0.06 -0.2,0.09 -0.24,0.11 -0.07,0.05 -0.14,0.1 -0.43,0.19 -0.17,0.05 -0.28,0.07 -0.38,0.09 -0.11,0.02 -0.2,0.04 -0.35,0.1l-0.22 0.11c-0.13,0.07 -0.26,0.14 -0.45,0.2l-0.42 0.12c-0.3,0.08 -0.49,0.13 -0.78,0.31 0.02,0.26 0.07,0.5 0.12,0.75 0.08,0.38 0.16,0.78 0.16,1.29 -0.01,1.09 -0.44,2.09 -1.07,2.98 -0.62,0.88 -1.42,1.64 -2.18,2.26l-0.06 0.05c-0.21,0.17 -0.41,0.34 -0.63,0.48 -1.05,0.62 -2.83,1.6 -3.93,2.09 -0.17,0.07 -0.31,0.1 -0.43,0.13l-0.27 0.08c0.09,0.26 0.21,0.31 0.4,0.4 0.12,0.05 0.25,0.11 0.41,0.2 0.44,0.25 0.86,0.43 1.29,0.56 0.44,0.13 0.91,0.22 1.42,0.29 0.53,0.07 0.75,0.14 0.94,0.19 0.27,0.08 0.45,0.13 1.66,0.13l3.28 -0.5c0.11,-0.03 0.19,-0.07 0.27,-0.11 0.11,-0.05 0.22,-0.11 0.39,-0.16 0.17,-0.05 0.34,-0.07 0.5,-0.1 0.11,-0.02 0.22,-0.03 0.3,-0.05l1.41 -0.48c0.19,-0.06 0.27,-0.1 0.36,-0.15l0.28 -0.13c0.16,-0.07 0.29,-0.1 0.41,-0.14 0.09,-0.02 0.19,-0.05 0.31,-0.1 1.22,-0.47 2.52,-1.05 3.77,-1.41 0.11,-0.03 0.19,-0.05 0.37,-0.13 0.74,-0.34 1.5,-0.57 2.27,-0.8 0.67,-0.2 1.34,-0.41 1.97,-0.67 1.01,-0.43 2.1,-0.74 3.19,-1.04 1.12,-0.31 2.24,-0.63 3.25,-1.07 1.28,-0.56 2.49,0.27 3.61,1.03 0.37,0.25 0.73,0.5 1.07,0.67l0.91 0.51c0.83,0.41 1.63,0.93 2.43,1.44 0.55,0.36 1.11,0.71 1.66,1.03l0.01 0c0.42,0.24 0.69,0.39 1.12,0.67l0.27 0.19 0.91 0.54c0.28,0.19 0.53,0.31 0.79,0.44 2,1.03 5.04,2.87 6.8,4.13 0.32,0.26 0.49,0.6 0.47,0.9 -0.01,0.16 -0.06,0.32 -0.17,0.44 -0.1,0.12 -0.25,0.21 -0.45,0.25 -0.44,0.1 -1.16,-0.06 -2.16,-0.71l-8.23 -4.97c-0.38,-0.21 -0.81,-0.44 -1.14,-0.68l-0.84 -0.56 -2.92 -1.71c-0.18,-0.1 -0.19,-0.11 -0.22,-0.14l-0.08 -0.06c-0.22,-0.15 -0.48,-0.28 -0.73,-0.42 -0.35,-0.19 -0.71,-0.38 -1,-0.61 -0.94,-0.74 -1.23,-0.63 -1.8,-0.43 -0.26,0.09 -0.56,0.2 -0.97,0.28l-2.16 0.66 -0.18 0.09c-0.14,0.07 -0.23,0.11 -0.51,0.18l-7.06 2.44 -0.3 0.09c-0.15,0.04 -0.3,0.08 -0.49,0.17l-2.79 1.02c-0.6,0.31 -1.28,0.51 -1.89,0.68 -0.36,0.1 -0.69,0.2 -0.95,0.3 -0.69,0.24 -1.53,0.46 -2.24,0.65 -0.79,0.21 -2.26,0.34 -3.67,0.35 -1.23,0 -2.44,-0.1 -3.15,-0.34l-0.18 -0.06c-1.7,-0.58 -2.77,-0.94 -4.3,-2.11 -0.4,-0.31 -0.64,-0.22 -0.96,-0.09 -0.51,0.2 -1.2,0.47 -2.69,-0.09 -0.41,-0.15 -0.75,-0.42 -1.05,-0.74 -0.29,-0.31 -0.54,-0.66 -0.76,-0.98l-0.36 -0.51c-0.89,-1.22 -2.44,-3.36 -1.52,-4.35l0.05 -0.04 0.53 -0.32 -0.29 -0.36c-0.15,-0.18 -0.3,-0.36 -0.45,-0.58l-8.53 -10.93c-0.22,-0.29 -0.46,-0.59 -0.7,-0.86 -1.03,-1.11 -2.2,-2.68 -3.14,-3.9 -0.07,-0.09 -0.12,-0.16 -0.26,-0.3 -0.5,-0.52 -0.94,-1.09 -1.38,-1.67 -0.35,-0.46 -0.71,-0.93 -1.09,-1.35 -1.83,-1.99 -3.7,-4.54 -5.46,-6.69 -0.74,-0.89 -1.48,-1.79 -2.16,-2.73l-1.92 -2.34c-0.21,-0.27 -0.45,-0.54 -0.69,-0.81 -0.31,-0.36 -0.63,-0.71 -0.9,-1.09l-2.44 1.86 -0.33 0.27c-0.33,0.27 -0.61,0.51 -1.08,0.76 -0.5,0.27 -0.86,0.42 -1.26,0.5z"/>
 </g>
</svg>
