<?xml version="1.0" encoding="UTF-8"?>
<!DOCTYPE svg PUBLIC "-//W3C//DTD SVG 1.1//EN" "http://www.w3.org/Graphics/SVG/1.1/DTD/svg11.dtd">
<!-- Creator: CorelDRAW 2021 (64-Bit) -->
<svg xmlns="http://www.w3.org/2000/svg" xml:space="preserve" width="0.890835in" height="0.500681in" version="1.1" style="shape-rendering:geometricPrecision; text-rendering:geometricPrecision; image-rendering:optimizeQuality; fill-rule:evenodd; clip-rule:evenodd"
viewBox="0 0 31.73 17.83"
 xmlns:xlink="http://www.w3.org/1999/xlink"
 xmlns:xodm="http://www.corel.com/coreldraw/odm/2003">
 <defs>
  <style type="text/css">
   <![CDATA[
    .fil0 {fill:#34044F}
   ]]>
  </style>
 </defs>
 <g id="Layer_x0020_1">
  <metadata id="CorelCorpID_0Corel-Layer"/>
  <path class="fil0" d="M13.42 15.42c-0.13,0.08 -0.35,0.22 -0.49,0.22 -0.12,0 -0.17,-0.03 -0.23,-0.06 -0.02,-0.01 -0.04,-0.02 -0.06,-0.03 -0.08,-0.04 -0.18,-0.06 -0.26,-0.1 -0.04,-0.02 -0.06,-0.03 -0.09,-0.04 -0.05,-0.02 -0.09,-0.04 -0.15,-0.08l-0.2 -0.14 -0 0c-0.02,0.01 -0.02,0.01 -0.04,0.02 -0.01,0 -0.02,0 -0.04,0 0,0.08 0,0.08 0,0.08 0.01,0.01 0.03,0.03 0.05,0.07l0.42 0.59c0.19,0.19 0.45,0.09 0.66,0 0.07,-0.03 0.14,-0.06 0.21,-0.07l0.09 -0.02c0.04,-0.01 0.06,-0.01 0.11,-0.04 0.12,-0.06 0.22,-0.1 0.31,-0.13 0.2,-0.08 0.4,-0.15 0.75,-0.43 0.14,-0.12 0.26,-0.22 0.36,-0.33 0.1,-0.11 0.17,-0.24 0.23,-0.41l0.03 -0.08c0.04,-0.09 0.07,-0.16 -0.01,-0.3l-0.02 -0.04c-0.02,-0.05 -0.03,-0.07 -0.21,0.01 -0.05,0.02 -0.1,0.04 -0.15,0.05 -0.1,0.03 -0.18,0.05 -0.26,0.18 -0.05,0.08 -0.12,0.19 -0.18,0.27 -0.11,0.14 -0.26,0.31 -0.41,0.47 -0.13,0.13 -0.28,0.25 -0.4,0.33l-0.02 0.02zm-1.55 -1.44c-0.01,-0.01 -0.01,-0.02 -0.02,-0.03 -0.04,0.01 -0.1,0.03 -0.14,0.06 -0.03,0.02 -0.06,0.04 -0.08,0.07 -0.02,0.02 -0.03,0.05 -0.03,0.08 0,0.02 0.01,0.04 0.02,0.07l0.34 0.41 0.42 0.33c0.06,0.03 0.21,0.11 0.33,0.16 0.08,0.03 0.15,0.06 0.18,0.06 0.11,0 0.34,-0.18 0.46,-0.28l0.04 -0.03 0.33 -0.32c0.02,-0.02 0.04,-0.04 0.05,-0.04l-0 -0.03c-0.05,-0 -0.11,-0 -0.18,0 -0.17,0.01 -0.39,0.01 -0.61,-0.03 -0.04,-0.01 -0.06,-0.02 -0.08,-0.03l-0.05 -0.02 -0.18 -0.05c-0.24,-0.07 -0.45,-0.13 -0.74,-0.34 -0.02,-0.02 -0.03,-0.02 -0.03,-0.02l-0 -0c-0.01,-0 -0.02,-0 -0.03,-0.02l-0 -0zm9.56 -2.2l-0.16 -0 0.01 0.01c0.04,0.02 0.1,0.05 0.22,0.09 0.08,0.02 0.09,0.03 0.12,0.05l0.04 0.03c0.03,0.01 0.05,0.02 0.07,0.03l0.06 0.03c0.03,0.02 0.04,0.02 0.04,0.02l0.03 0.02 1.18 0.63c0.03,0.01 0.06,0.03 0.09,0.05 0.03,0.02 0.06,0.03 0.09,0.05l-0.02 -0.02 -0.81 -0.7c-0.06,-0.05 -0.11,-0.1 -0.14,-0.13 -0.11,-0.1 -0.11,-0.11 -0.41,-0.13 -0.13,-0.01 -0.26,-0.02 -0.4,-0.02zm1.81 1.01c0,0 0,0 0,0l-0 -0zm-8.28 -3.06c0.08,0.02 0.17,0.02 0.22,0.02 0.44,0 0.94,-0.03 1.41,-0.14 0.46,-0.11 0.9,-0.31 1.21,-0.64 0.09,-0.1 0.11,-0.14 0.09,-0.16 -0.04,-0.04 -0.19,-0.03 -0.33,-0.03l-0.13 0c-0.18,0 -0.35,0.01 -0.52,0.02 -0.2,0.01 -0.4,0.02 -0.58,0.01 -0.04,-0 -0.1,0.01 -0.15,0.02l-0.07 0.01c-0.1,0.02 -0.17,0.02 -0.27,0.02 -0.39,-0 -0.8,0.01 -1.19,0.03 -0.07,0 -0.1,0 -0.1,0.01 -0.01,0.02 0,0.09 0.02,0.2l0.02 0.13c0.01,0.09 0.04,0.2 0.09,0.29 0.04,0.07 0.08,0.13 0.13,0.16 0.03,0.02 0.08,0.03 0.14,0.04zm-3.69 3.95l0.02 0.05c0.06,-0.01 0.1,-0.02 0.13,-0.04 0.03,-0.02 0.05,-0.06 0.08,-0.11l-0.04 -0.06c-0.05,-0.07 -0.11,-0.15 -0.14,-0.17 -1.04,-1.07 -2.94,-3.61 -3.95,-4.86l-0.02 -0.03c-0.03,-0.03 -0.05,-0.05 -0.08,-0.09l-1.23 -1.54c-0.02,-0.03 -0.05,-0.06 -0.07,-0.08 -0.03,-0.04 -0.06,-0.07 -0.09,-0.13 -0.09,0.02 -0.14,0.05 -0.16,0.08 -0.02,0.03 -0.03,0.07 -0.03,0.12 0.04,0.02 0.05,0.03 0.07,0.06l0.02 0.03c0.2,0.25 0.42,0.52 0.63,0.79 0.3,0.38 0.6,0.76 0.89,1.09 0.15,0.17 0.43,0.53 0.72,0.89 0.34,0.44 0.7,0.89 0.85,1.05 0.66,0.69 1.9,2.21 2.4,2.94zm7.81 -6.61c0.1,-0.01 0.19,-0.01 0.25,-0.04l0.07 -0.03c0.04,-0.02 0.05,-0.02 0.16,-0.04l0.37 -0.16c0.08,-0.04 0.21,-0.13 0.26,-0.2 -0.15,-0.08 -0.4,-0.09 -0.59,-0.1 -0.06,-0 -0.12,-0.01 -0.17,-0.01 -0.23,-0.02 -0.49,-0.05 -0.73,-0.09l-0.13 -0.02c-0.07,-0.01 -0.14,-0.01 -0.21,-0.01 -0.08,-0 -0.15,-0 -0.23,-0.02 -0.17,-0.03 -0.39,-0.05 -0.59,-0.06 -0.27,-0.02 -0.52,-0.04 -0.67,-0.09 -0.02,0.03 -0.05,0.07 -0.05,0.1 0,0.13 0,0.27 0.03,0.38 0.02,0.11 0.07,0.2 0.15,0.25 0.11,0.07 0.43,0.11 0.69,0.14 0.12,0.01 0.22,0.02 0.29,0.04 0.25,0.05 0.28,0.05 0.44,0.05l0.22 -0c0.04,0 0.06,-0.01 0.09,-0.02 0.03,-0.01 0.06,-0.03 0.13,-0.04 0.08,-0.01 0.16,-0.02 0.22,-0.02zm-15.31 0.19c-0.04,0.03 -0.06,0.05 -0.09,0.06 0.03,0.07 0.07,0.13 0.28,0.13 0.18,0 0.31,-0.11 0.42,-0.21 0.54,-0.47 1.15,-0.93 1.71,-1.38l0.15 -0.12c0.22,-0.17 0.5,-0.39 0.59,-0.58 0.04,-0.09 0.06,-0.16 0.06,-0.22 0,-0.04 -0.01,-0.08 -0.02,-0.11 -0.01,-0.02 -0.03,-0.04 -0.04,-0.04l-0.02 -0c-0.04,0 -0.33,0.26 -0.44,0.35l-0.07 0.06 -0.67 0.52c-0.07,0.06 -0.12,0.1 -0.19,0.16 -0.32,0.27 -0.64,0.53 -0.97,0.79 -0.2,0.2 -0.5,0.41 -0.72,0.6zm18.63 -2.47c-0.06,-0.01 -0.12,-0.02 -0.17,-0.03 -0.05,-0.01 -0.08,-0.03 -0.11,-0.04 -0.04,-0.02 -0.08,-0.03 -0.18,-0.05 -0.38,-0.08 -0.81,-0.2 -1.19,-0.3 -0.08,-0.03 -0.16,-0.04 -0.26,-0.05l-0.06 -0.01c-0.03,-0 -0.08,-0.02 -0.12,-0.03 -0.06,-0.02 -0.13,-0.04 -0.18,-0.04 -0.03,0 -0.05,0.01 -0.05,0.05l-0 0.04c-0,0.14 -0,0.36 0.18,0.44 0.24,0.09 0.43,0.11 0.61,0.12 0.09,0.01 0.18,0.01 0.28,0.02 0.41,0.06 0.49,0.05 0.68,0.02 0.08,-0.01 0.17,-0.02 0.31,-0.03l0.09 -0.01c0.12,-0.01 0.22,-0.01 0.26,-0.09l-0.08 -0.01zm-21.57 -3.91c-0.12,0.13 -0.18,0.24 -0.26,0.4l-0.14 0.55c0,0.09 0.03,0.22 0.07,0.35 0.05,0.14 0.11,0.28 0.17,0.39l0.03 0.05c0.02,0.03 0.03,0.05 0.06,0.1l0.97 1.58c0.03,0.05 0.05,0.08 0.07,0.11l0.03 0.06c0.03,0.05 0.06,0.1 0.09,0.14 0.03,0.05 0.07,0.1 0.11,0.17 0.4,0.64 0.84,1.31 1.21,1.96 0.08,0.15 0.12,0.22 0.19,0.2 0.08,-0.02 0.22,-0.14 0.48,-0.37 0.28,-0.24 0.56,-0.46 0.85,-0.69 0.23,-0.21 0.66,-0.55 1.01,-0.83l0.39 -0.32 0.37 -0.29 -2.48 -2.4c-0.05,-0.05 -0.07,-0.07 -0.11,-0.1l-0.31 -0.3c-0.09,-0.09 -0.19,-0.19 -0.3,-0.29 -0.33,-0.33 -0.72,-0.71 -1.06,-0.82 -0.05,-0.01 -0.07,-0.02 -0.09,-0.03 -0.03,-0.01 -0.05,-0.02 -0.11,-0.03 -0.1,-0.02 -0.2,-0.03 -0.3,-0.03 -0.09,0 -0.17,0.02 -0.26,0.04 -0.14,0.05 -0.26,0.09 -0.36,0.14 -0.1,0.06 -0.2,0.13 -0.31,0.24zm3.32 6.98c-0.09,0.02 -0.18,0.02 -0.32,0.02 -0.13,0 -0.26,-0.05 -0.37,-0.12 -0.13,-0.09 -0.24,-0.21 -0.32,-0.33l-0.8 -1.29 -0.03 -0.05c-0.01,-0.02 -0.02,-0.03 -0.04,-0.07 -0.21,-0.35 -0.43,-0.69 -0.64,-1.03 -0.03,-0.05 -0.04,-0.06 -0.05,-0.09 -0.01,-0.01 -0.01,-0.03 -0.03,-0.06 -0.12,-0.21 -0.25,-0.42 -0.39,-0.64 -0.11,-0.17 -0.22,-0.35 -0.32,-0.52l-0.01 -0.02c-0.02,-0.04 -0.04,-0.08 -0.07,-0.11l-0.03 -0.04c-0.01,-0.02 -0.02,-0.03 -0.05,-0.07l-0.03 -0.05c-0.01,-0.02 -0.02,-0.04 -0.05,-0.08l-0.31 -0.52c-0.02,-0.02 -0.02,-0.03 -0.03,-0.04 -0.01,-0.02 -0.02,-0.03 -0.05,-0.08 -0.02,-0.04 -0.05,-0.1 -0.07,-0.17 -0.02,-0.05 -0.04,-0.1 -0.05,-0.14 -0.03,-0.12 -0.06,-0.26 -0.07,-0.4 -0.01,-0.11 -0.01,-0.23 0.01,-0.32 0.03,-0.17 0.06,-0.3 0.1,-0.43 0.04,-0.13 0.1,-0.24 0.19,-0.39 0.08,-0.11 0.19,-0.25 0.27,-0.35 0.08,-0.08 0.2,-0.16 0.33,-0.24 0.12,-0.07 0.26,-0.13 0.36,-0.15 0.05,-0.01 0.08,-0.02 0.11,-0.02l0.14 -0.03c0.09,-0.02 0.18,-0.04 0.28,-0.04 0.15,0 0.36,0.03 0.55,0.08 0.17,0.05 0.34,0.11 0.45,0.19 0.09,0.07 0.17,0.14 0.25,0.22 0.06,0.05 0.11,0.11 0.18,0.16 0.23,0.18 0.43,0.39 0.64,0.59 0.13,0.13 0.25,0.25 0.38,0.37l0.65 0.61c0.09,0.08 0.17,0.17 0.26,0.25 0.15,0.15 0.3,0.3 0.46,0.43 0.2,0.22 0.61,0.61 0.84,0.79 0.07,0.07 0.16,0.15 0.25,0.23 0.17,0.16 0.36,0.33 0.46,0.47l0.01 0.02c0.07,0.1 0.09,0.13 0.12,0.29 0.02,0.11 0.03,0.24 0.03,0.36 -0,0.12 -0.03,0.24 -0.09,0.35 -0.11,0.18 -0.23,0.28 -0.38,0.4l-0.13 0.11c-0.02,0.02 -0.05,0.05 -0.07,0.07 -0.04,0.03 -0.08,0.06 -0.12,0.09 -0.12,0.08 -0.26,0.18 -0.28,0.28l0.7 0.87c0.04,0.06 0.09,0.12 0.14,0.17l0.34 0.43c0.69,0.82 1.34,1.73 2.04,2.52 0.03,0.04 0.06,0.07 0.09,0.1 0.03,0.03 0.06,0.06 0.09,0.11l1.18 1.48 0.09 0.1c0.17,0.21 0.35,0.43 0.52,0.65 0.19,0.24 0.49,0.63 0.63,0.77l0.21 0.16c0.19,0.09 0.39,0.17 0.58,0.25 0.03,0.01 0.05,0.02 0.08,0.03 0.02,0.01 0.03,0.01 0.06,0.02 0.17,0.06 0.37,0.06 0.56,0.04 0.23,-0.03 0.47,-0.1 0.65,-0.19l2.84 -0.98c0.03,-0.01 0.05,-0.02 0.07,-0.03 0.02,-0.01 0.03,-0.02 0.06,-0.03 0.05,-0.02 0.08,-0.03 0.12,-0.03l0.04 -0.01c0.07,-0.02 0.1,-0.03 0.12,-0.04 0.03,-0.02 0.07,-0.04 0.16,-0.06l0.07 -0.01c0.03,-0 0.04,-0.01 0.08,-0.02l0.4 -0.15c0.05,-0.02 0.1,-0.04 0.15,-0.05 0.05,-0.01 0.09,-0.03 0.14,-0.04l1.29 -0.44c0.03,-0.01 0.04,-0.02 0.05,-0.03 0.01,-0.01 0.03,-0.02 0.08,-0.04 0.06,-0.02 0.1,-0.02 0.14,-0.03 0.04,-0 0.08,-0.01 0.15,-0.05l0.05 -0.03c-0.33,0.01 -0.65,0.02 -0.97,0.04 -0.37,0.02 -0.74,0.04 -1.13,0.04l-0.76 -0.09c-0.12,-0.02 -0.26,-0.04 -0.38,-0.07 -0.11,-0.03 -0.21,-0.06 -0.31,-0.11l-0.12 -0.05c-0.06,-0.02 -0.12,-0.05 -0.19,-0.09l-0.27 -0.15c-0.12,-0.07 -0.27,-0.19 -0.4,-0.31 -0.12,-0.1 -0.22,-0.22 -0.29,-0.32 -0.03,-0.04 -0.06,-0.1 -0.09,-0.16 -0.07,-0.14 -0.16,-0.3 -0.23,-0.33 -0.09,-0.04 -0.15,-0.04 -0.22,-0.04 -0.12,-0.01 -0.24,-0.01 -0.42,-0.2 -0.04,-0.04 -0.08,-0.09 -0.12,-0.14 -0.03,-0.04 -0.05,-0.08 -0.07,-0.12l-0.09 -0.35c-0.03,-0.12 -0.05,-0.27 -0.06,-0.41 -0,-0.15 0.01,-0.29 0.04,-0.42l0.01 -0.03 0.03 -0.01c0.24,-0.06 0.6,-0.05 0.94,-0.04 0.26,0.01 0.52,0.01 0.71,-0.01 0.25,-0.03 0.52,-0.03 0.79,-0.02 0.29,0 0.58,0 0.83,-0.03 0.07,-0.01 0.09,-0.02 0.09,-0.02 -0,-0.01 -0.02,-0.04 -0.05,-0.07 -0.07,-0.09 -0.14,-0.21 -0.19,-0.31 -0.08,-0.17 -0.13,-0.29 -0.16,-0.37 -0.04,-0.1 -0.06,-0.14 -0.07,-0.15 -0,-0 -0,0 -0.01,0 -0.04,-0 -0.13,-0.01 -0.32,-0.14 -0.04,-0.03 -0.08,-0.06 -0.12,-0.1 -0.04,-0.04 -0.07,-0.08 -0.1,-0.13l-0.01 -0.01c-0.07,-0.12 -0.09,-0.15 -0.1,-0.32l-0.01 -0.11c-0.02,-0.26 -0.03,-0.44 -0.03,-0.57 0.02,-0.28 0.13,-0.31 0.45,-0.29 0.24,0.02 0.48,0.05 0.72,0.08 0.33,0.04 0.66,0.08 0.97,0.09 0.13,0 0.22,0.02 0.31,0.05 0.08,0.02 0.15,0.04 0.24,0.04 0.12,0 0.21,0.01 0.29,0.01 0.09,0.01 0.18,0.01 0.28,0.01 0.11,0 0.19,0.02 0.28,0.04 0.08,0.02 0.16,0.04 0.27,0.04 0.1,0 0.19,0.01 0.27,0.01 0.07,0.01 0.15,0.01 0.24,0.01 -0.01,-0.02 -0.02,-0.04 -0.05,-0.06l-0.07 -0.07c-0.16,-0.17 -0.25,-0.38 -0.35,-0.59l-0.07 -0.15c-0.02,-0.04 -0.04,-0.07 -0.07,-0.09 -0.03,-0.02 -0.07,-0.05 -0.11,-0.07 -0.07,-0.05 -0.15,-0.1 -0.21,-0.17l-0.01 -0.01 -0.13 -0.23c-0.02,-0.04 -0.03,-0.09 -0.04,-0.15 -0.01,-0.06 -0.01,-0.12 -0.01,-0.18 0,-0.14 0.01,-0.25 0.03,-0.34 0.03,-0.1 0.07,-0.18 0.14,-0.29l0.02 -0.03 0.04 0.01c0.05,0.01 0.11,0.02 0.16,0.03 0.4,0.07 0.89,0.18 1.28,0.29 0.07,0.02 0.12,0.03 0.17,0.04 0.07,0.01 0.15,0.02 0.3,0.07 0.04,0.02 0.09,0.03 0.15,0.04 0.08,0.02 0.18,0.04 0.31,0.08 0.05,0.02 0.11,0.03 0.17,0.04l0.08 0.01c0.09,0.02 0.11,0.03 0.15,0.04 0.01,0.01 0.03,0.02 0.07,0.03 0.04,0.02 0.08,0.02 0.13,0.03 0.04,0.01 0.07,0.01 0.11,0.02l0.65 0.2c0.14,0.03 0.28,0.07 0.42,0.11 0.16,0.05 0.32,0.1 0.49,0.13 0.06,0.01 0.1,0.03 0.14,0.05 0.03,0.01 0.05,0.02 0.09,0.03 0.03,0.01 0.07,0.01 0.1,0.02 0.04,0 0.09,0.01 0.13,0.03 0.04,0.01 0.07,0.03 0.09,0.04 0.03,0.02 0.06,0.03 0.12,0.04 0.22,0.04 0.47,0.12 0.73,0.2 0.22,0.07 0.44,0.13 0.63,0.17 0.12,0.03 0.28,0.07 0.44,0.12 0.13,0.04 0.25,0.09 0.34,0.13l0.02 0.01 3.92 3.99c0.05,0.05 0.08,0.09 0.13,0.15l0.02 0.02c0.02,0.03 0.05,0.06 0.1,0.11 0.12,0.13 0.28,0.31 0.28,0.41l0 0.08c0,0.11 -0.02,0.22 -0.16,0.22 -0.17,0 -0.4,-0.31 -0.56,-0.51 -0.04,-0.05 -0.07,-0.1 -0.1,-0.13l-1.11 -1.25c-0.1,-0.11 -0.2,-0.23 -0.3,-0.34 -0.16,-0.19 -0.33,-0.38 -0.5,-0.55l-0.95 -0.96c-0.2,-0.2 -0.41,-0.42 -0.63,-0.59l-0.06 -0.05c-0.08,-0.07 -0.18,-0.15 -0.24,-0.18l-0.58 -0.21c-0.03,-0.01 -0.07,-0.01 -0.1,-0.02 -0.03,-0 -0.07,-0.01 -0.1,-0.02 -0.05,-0.01 -0.07,-0.02 -0.1,-0.04 -0.03,-0.01 -0.06,-0.02 -0.1,-0.04 -0.19,-0.05 -0.54,-0.11 -0.72,-0.19 -0.15,-0.06 -0.31,-0.1 -0.48,-0.13l-0.23 -0.06c-0.05,-0.01 -0.08,-0.03 -0.11,-0.04 -0.02,-0.01 -0.05,-0.02 -0.09,-0.03 -0.04,-0.01 -0.08,-0.02 -0.11,-0.02 -0.03,-0 -0.07,-0.01 -0.1,-0.02 -0.07,-0.02 -0.09,-0.03 -0.11,-0.05 -0.01,-0.01 -0.03,-0.02 -0.08,-0.03 -0.04,-0.01 -0.07,-0.01 -0.1,-0.01 -0.04,-0 -0.07,-0.01 -0.12,-0.02 -0.04,-0.01 -0.08,-0.03 -0.11,-0.04 -0.03,-0.01 -0.05,-0.03 -0.09,-0.04 -0.04,-0.01 -0.08,-0.02 -0.11,-0.02 -0.03,-0 -0.06,-0.01 -0.09,-0.01 -0.13,-0.03 -0.2,-0.06 -0.25,-0.08 -0.09,-0.04 -0.09,-0.04 -0.45,0.17 -0.07,0.04 -0.16,0.06 -0.26,0.08 -0.05,0.01 -0.11,0.02 -0.15,0.04 -0.08,0.03 -0.24,0.04 -0.42,0.05 -0.21,0.01 -0.45,0.01 -0.56,-0.01 -0.08,-0.01 -0.16,-0.01 -0.23,-0 -0.09,0 -0.19,0.01 -0.28,-0.01l-0.04 -0.01c-0.05,-0.01 -0.12,-0.03 -0.15,-0 -0,0 -0.03,-0.02 -0.02,-0.01 0.01,0.01 0.02,0.02 0.03,0.04 0.01,0.04 0.03,0.09 0.07,0.15 0.04,0.06 0.09,0.13 0.17,0.22 0.09,0.1 0.18,0.19 0.27,0.28 0.04,0.04 0.1,0.1 0.17,0.15 0.04,0.03 0.08,0.06 0.1,0.07l0.91 0.13c0.08,0.01 0.19,0.02 0.29,0.02 0.07,0 0.14,0.01 0.2,0.01l0.18 0.02c0.1,0.01 0.19,0.01 0.3,0.04l0.94 0.09 0.28 0.03c0.43,0.04 0.9,0.08 1.27,0.29 0.25,0.14 0.44,0.37 0.62,0.59l0.05 0.06c0.61,0.66 1.22,1.32 1.82,1.99l0.06 0.07 0.62 0.68c0.14,0.18 0.31,0.35 0.47,0.53 0.14,0.14 0.27,0.29 0.4,0.44l0.37 0.4c0.26,0.28 0.28,0.36 0.19,0.44 -0.02,0.02 -0.04,0.03 -0.06,0.05 -0.03,0.02 -0.06,0.04 -0.09,0.07l-0.03 0.03 -0.09 -0.06c-0.04,-0.02 -0.07,-0.04 -0.1,-0.07l-0.13 -0.13c-0.03,-0.03 -0.04,-0.05 -0.06,-0.07l-0.05 -0.06c-0.26,-0.28 -0.51,-0.57 -0.76,-0.86 -0.79,-0.75 -1.84,-2.02 -2.58,-2.82l-0.11 -0.14 -0.45 -0.49c-0.13,-0.13 -0.27,-0.24 -0.44,-0.32 -0.14,-0.07 -0.3,-0.12 -0.46,-0.13 -0.07,-0.01 -0.12,-0.01 -0.17,-0.01 -0.09,-0 -0.16,-0 -0.27,-0.03 -0.12,-0.03 -0.26,-0.05 -0.4,-0.06 -0.14,-0.01 -0.29,-0.02 -0.44,-0.02 -0.14,-0 -0.28,-0.03 -0.42,-0.06 -0.13,-0.03 -0.27,-0.05 -0.41,-0.06 -0.25,-0.01 -0.44,-0.04 -0.66,-0.07l-0.18 -0.03c-0.13,-0.02 -0.28,-0.03 -0.43,-0.03 -0.15,-0.01 -0.3,-0.02 -0.43,-0.03 -0.09,-0.01 -0.16,-0.03 -0.22,-0.04 -0.11,-0.02 -0.16,-0.03 -0.2,-0.02 -0.04,0.01 -0.08,0.06 -0.16,0.15 -0.04,0.05 -0.09,0.11 -0.14,0.15 -0.11,0.11 -0.25,0.19 -0.38,0.26 -0.18,0.1 -0.48,0.19 -0.68,0.26 -0.13,0.03 -0.25,0.06 -0.37,0.08 -0.12,0.02 -0.24,0.03 -0.37,0.04 -0.39,0.03 -0.51,0.01 -0.65,-0.01 -0.09,-0.01 -0.18,-0.02 -0.34,-0.02 -0.06,0 -0.1,0 -0.1,0.01 -0.01,0.01 0.01,0 0.02,0.02 0.05,0.15 0.12,0.26 0.2,0.38l0.04 0.05c0.04,0.06 0.11,0.16 0.18,0.24 0.04,0.05 0.09,0.09 0.12,0.11 0.09,0.04 1.73,0.02 2.42,0.02l0.28 -0c0.11,-0 0.2,0.01 0.29,0.02 0.07,0.01 0.15,0.01 0.23,0.01 0.26,0 0.54,0 0.81,0.01 0.27,0.01 0.54,0.02 0.79,0.04 0.18,0.02 0.38,0.01 0.57,0 0.42,-0.01 0.85,-0.02 1.22,0.15l0.18 0.09 0.01 0.01 3.36 2.96c0.04,0.03 0.06,0.05 0.07,0.07 0.01,0.02 0.03,0.03 0.07,0.06 0.05,0.04 0.1,0.09 0.15,0.13 0.05,0.04 0.09,0.09 0.14,0.13l0.57 0.52 0.03 0.02c0.11,0.09 0.2,0.17 0.22,0.34l0 0.03 -0.19 0.16 -0.02 0.03 -0 -0 -0.01 0.01 -0.01 -0.02 -0.01 -0.01c-0.22,-0.11 -0.41,-0.3 -0.58,-0.47l-0.09 -0.08c-1.31,-1.22 -2.58,-2.34 -3.93,-3.5 -0.26,-0.16 -0.53,-0.16 -0.83,-0.16l-0.15 -0c-0.08,-0 -0.13,-0.01 -0.18,-0.02 -0.05,-0.01 -0.1,-0.01 -0.18,-0.01l-0.17 0c-0.21,0 -0.42,0 -0.59,-0.02 -0.06,-0.01 -0.12,-0.01 -0.19,-0.01 -0.07,0 -0.14,-0 -0.21,-0.01 -0.3,-0.04 -0.41,-0.03 -0.5,-0.02 -0.06,0.01 -0.11,0.01 -0.19,0 -0.43,-0.05 -1.54,-0.04 -2.36,-0.03l-0.66 0.01c-0.05,0 -0.07,0.01 -0.1,0.01l-0.05 0.01c-0.02,0.1 -0.06,0.19 -0.11,0.28 -0.08,0.13 -0.18,0.24 -0.28,0.32 -0.09,0.08 -0.18,0.15 -0.28,0.22 -0.1,0.07 -0.2,0.13 -0.32,0.17l-0.17 0.08c-0.07,0.03 -0.09,0.04 -0.14,0.05l-0.06 0.01c-0.06,0.01 -0.1,0.03 -0.13,0.05 -0.06,0.03 -0.11,0.05 -0.25,0.07l-0.1 0.01 -0.11 0.02c-0.04,0.01 -0.06,0.02 -0.08,0.02 -0.03,0.01 -0.06,0.02 -0.11,0.03 -0.11,0.02 -0.24,0.02 -0.36,0.01 -0.12,-0.01 -0.22,-0.01 -0.26,0.01 -0.01,0.01 -0,0.04 0.05,0.11 0.06,0.08 0.12,0.16 0.18,0.24 0.06,0.07 0.13,0.13 0.19,0.19 0.03,0.02 0.06,0.05 0.09,0.07l0.27 0.19 0.07 0.04c0.14,0.08 0.27,0.15 0.43,0.19 0.06,0.02 0.1,0.03 0.13,0.05l0.06 0.02c0.54,0.19 1.44,0.15 2.15,0.13 0.23,-0.01 0.43,-0.02 0.6,-0.02l1.18 -0.03c0.09,0 0.14,0.01 0.19,0.02 0.05,0.01 0.09,0.01 0.16,0.01l0.22 -0c0.2,-0 0.4,-0 0.56,0.02 0.21,0.04 0.48,0.29 0.69,0.48 0.05,0.05 0.1,0.09 0.14,0.13l0.75 0.65 0.06 0.05 0.64 0.54 0.15 0.13c0.11,0.1 0.22,0.2 0.33,0.28l0.51 0.28c0.05,0.02 0.07,0.03 0.08,0.05l0.04 0.02c0.03,0.02 0.05,0.02 0.07,0.03 0.5,0.22 1,0.54 1.49,0.78 0.1,0.05 0.15,0.11 0.17,0.18 0.02,0.04 0.02,0.09 0.01,0.12 -0.01,0.04 -0.03,0.07 -0.05,0.1 -0.03,0.04 -0.08,0.06 -0.13,0.06 -0.05,0 -0.14,-0.03 -0.24,-0.08 -0.15,-0.07 -0.33,-0.18 -0.4,-0.22l-1.74 -0.92c-0.03,-0.02 -0.04,-0.02 -0.06,-0.03 -0.15,-0.06 -0.3,-0.15 -0.44,-0.23l-0.04 -0.02c-0.01,-0.01 -0.03,-0.01 -0.06,-0.02l-2.33 -1.24c-0.09,-0.04 -0.18,-0.09 -0.26,-0.14 -0.1,-0.06 -0.2,-0.12 -0.32,-0.16 -0.15,-0.05 -0.29,-0.07 -0.43,-0.07 -0.14,0 -0.29,0.02 -0.45,0.04 -0.09,0.01 -0.14,0.03 -0.19,0.06 -0.04,0.02 -0.08,0.03 -0.13,0.05 -0.06,0.02 -0.1,0.03 -0.15,0.05 -0.06,0.02 -0.11,0.04 -0.18,0.06l-0.65 0.23c-0.05,0.02 -0.09,0.03 -0.13,0.05 -0.06,0.02 -0.11,0.05 -0.19,0.07l-0.07 0.01c-0.03,0.01 -0.05,0.01 -0.09,0.03 -0.16,0.07 -0.32,0.12 -0.46,0.16 -0.08,0.02 -0.16,0.05 -0.22,0.07 -0.18,0.07 -0.37,0.15 -0.55,0.2 -0.03,0.01 -0.07,0.02 -0.1,0.03l-0.98 0.33c-0.04,0.01 -0.05,0.02 -0.05,0.03 -0.02,0.01 -0.03,0.02 -0.1,0.04 -0.04,0.01 -0.07,0.02 -0.09,0.02 -0.02,0 -0.05,0.01 -0.08,0.02l-0.05 0.03c-0.03,0.02 -0.06,0.03 -0.1,0.05l-0.1 0.03c-0.07,0.02 -0.11,0.03 -0.18,0.07 0,0.06 0.02,0.12 0.03,0.17 0.02,0.09 0.04,0.18 0.04,0.3 -0,0.25 -0.1,0.48 -0.25,0.69 -0.14,0.2 -0.33,0.38 -0.5,0.52l-0.01 0.01c-0.05,0.04 -0.09,0.08 -0.14,0.11 -0.24,0.14 -0.65,0.37 -0.91,0.48 -0.04,0.02 -0.07,0.02 -0.1,0.03l-0.06 0.02c0.02,0.06 0.05,0.07 0.09,0.09 0.03,0.01 0.06,0.03 0.09,0.05 0.1,0.06 0.2,0.1 0.3,0.13 0.1,0.03 0.21,0.05 0.33,0.07 0.12,0.02 0.17,0.03 0.22,0.04 0.06,0.02 0.1,0.03 0.38,0.03l0.76 -0.12c0.03,-0.01 0.04,-0.02 0.06,-0.03 0.02,-0.01 0.05,-0.02 0.09,-0.04 0.04,-0.01 0.08,-0.02 0.12,-0.02 0.03,-0 0.05,-0.01 0.07,-0.01l0.32 -0.11c0.04,-0.01 0.06,-0.02 0.08,-0.04l0.07 -0.03c0.04,-0.02 0.07,-0.02 0.1,-0.03 0.02,-0.01 0.04,-0.01 0.07,-0.02 0.28,-0.11 0.58,-0.24 0.87,-0.33 0.02,-0.01 0.04,-0.01 0.09,-0.03 0.17,-0.08 0.35,-0.13 0.52,-0.18 0.15,-0.05 0.31,-0.09 0.45,-0.16 0.23,-0.1 0.48,-0.17 0.74,-0.24 0.26,-0.07 0.52,-0.15 0.75,-0.25 0.29,-0.13 0.58,0.06 0.83,0.24 0.09,0.06 0.17,0.11 0.25,0.16l0.21 0.12c0.19,0.1 0.38,0.21 0.56,0.33 0.13,0.08 0.26,0.16 0.38,0.24l0 0c0.1,0.06 0.16,0.09 0.26,0.16l0.06 0.04 0.21 0.12c0.07,0.04 0.12,0.07 0.18,0.1 0.46,0.24 1.16,0.66 1.57,0.95 0.07,0.06 0.11,0.14 0.11,0.21 -0,0.04 -0.01,0.07 -0.04,0.1 -0.02,0.03 -0.06,0.05 -0.1,0.06 -0.1,0.02 -0.27,-0.01 -0.5,-0.16l-1.9 -1.15c-0.09,-0.05 -0.19,-0.1 -0.26,-0.16l-0.19 -0.13 -0.67 -0.4c-0.04,-0.02 -0.04,-0.03 -0.05,-0.03l-0.02 -0.01c-0.05,-0.03 -0.11,-0.07 -0.17,-0.1 -0.08,-0.04 -0.16,-0.09 -0.23,-0.14 -0.22,-0.17 -0.28,-0.15 -0.42,-0.1 -0.06,0.02 -0.13,0.05 -0.22,0.07l-0.5 0.15 -0.04 0.02c-0.03,0.02 -0.05,0.03 -0.12,0.04l-1.63 0.56 -0.07 0.02c-0.04,0.01 -0.07,0.02 -0.11,0.04l-0.64 0.24c-0.14,0.07 -0.3,0.12 -0.44,0.16 -0.08,0.02 -0.16,0.05 -0.22,0.07 -0.16,0.05 -0.35,0.11 -0.52,0.15 -0.18,0.05 -0.52,0.08 -0.85,0.08 -0.28,0 -0.56,-0.02 -0.73,-0.08l-0.04 -0.01c-0.39,-0.13 -0.64,-0.22 -0.99,-0.49 -0.09,-0.07 -0.15,-0.05 -0.22,-0.02 -0.12,0.05 -0.28,0.11 -0.62,-0.02 -0.09,-0.04 -0.17,-0.1 -0.24,-0.17 -0.07,-0.07 -0.12,-0.15 -0.18,-0.23l-0.08 -0.12c-0.21,-0.28 -0.56,-0.78 -0.35,-1l0.01 -0.01 0.12 -0.07 -0.07 -0.08c-0.03,-0.04 -0.07,-0.08 -0.1,-0.13l-1.97 -2.52c-0.05,-0.07 -0.11,-0.14 -0.16,-0.2 -0.24,-0.26 -0.51,-0.62 -0.72,-0.9 -0.02,-0.02 -0.03,-0.04 -0.06,-0.07 -0.12,-0.12 -0.22,-0.25 -0.32,-0.38 -0.08,-0.11 -0.16,-0.21 -0.25,-0.31 -0.42,-0.46 -0.85,-1.05 -1.26,-1.54 -0.17,-0.21 -0.34,-0.41 -0.5,-0.63l-0.44 -0.54c-0.05,-0.06 -0.1,-0.13 -0.16,-0.19 -0.07,-0.08 -0.14,-0.16 -0.21,-0.25l-0.56 0.43 -0.08 0.06c-0.08,0.06 -0.14,0.12 -0.25,0.18 -0.12,0.06 -0.2,0.1 -0.29,0.11z"/>
 </g>
</svg>
