<?xml version="1.0" encoding="UTF-8"?>
<!DOCTYPE svg PUBLIC "-//W3C//DTD SVG 1.1//EN" "http://www.w3.org/Graphics/SVG/1.1/DTD/svg11.dtd">
<!-- Creator: CorelDRAW 2021 (64-Bit) -->
<svg xmlns="http://www.w3.org/2000/svg" xml:space="preserve" width="0.56885in" height="0.628945in" version="1.1" style="shape-rendering:geometricPrecision; text-rendering:geometricPrecision; image-rendering:optimizeQuality; fill-rule:evenodd; clip-rule:evenodd"
viewBox="0 0 10.88 12.03"
 xmlns:xlink="http://www.w3.org/1999/xlink"
 xmlns:xodm="http://www.corel.com/coreldraw/odm/2003">
 <defs>
  <style type="text/css">
   <![CDATA[
    .fil0 {fill:#34044F}
   ]]>
  </style>
 </defs>
 <g id="Layer_x0020_1">
  <metadata id="CorelCorpID_0Corel-Layer"/>
  <g id="_2015436937200">
   <path class="fil0" d="M4.47 4.07c-0.75,-0.28 -1.73,-1.1 -2.31,-1.64 -0.11,-0.1 -0.49,-0.48 -0.58,-0.48 -0.09,0 -0.14,0.05 -0.14,0.14 0,0.16 0.43,0.45 0.55,0.57 0.21,0.22 0.75,0.63 1.02,0.84 0.63,0.48 1.14,0.81 1.92,1.04l2.03 0.57c0.57,0.16 1.13,0.38 1.7,0.54 0.59,0.17 0.82,0.25 1.46,0.04 0.17,-0.06 0.33,-0.14 0.48,-0.06 -0.01,0.14 -0.12,0.39 -0.19,0.5 -0.09,0.15 -0.2,0.25 -0.32,0.37 -0.64,0.62 -1.34,0.36 -2.01,0.36 -0.69,0 -0.89,-0.01 -1.53,0.19 -0.88,0.29 -1.95,1.59 -2.7,0.63 -0.56,-0.72 -0.74,-1.5 -1.5,-2.11l-0.35 -0.25c-0.39,-0.27 -0.8,-0.54 -1.21,-0.76 -0.27,-0.15 -0.7,-0.58 -0.79,-0.18 0.15,0.18 0.77,0.52 0.98,0.65l1.22 0.79c0.08,0.07 0.13,0.1 0.21,0.19 0.15,0.15 0.23,0.27 0.35,0.45 0.11,0.16 0.22,0.34 0.3,0.5 0.05,0.09 0.09,0.17 0.14,0.26l0.24 0.39c0.12,0.2 0.26,0.4 0.46,0.54 0.26,0.18 0.67,0.23 0.97,0.14 0.92,-0.28 1.38,-1.16 2.86,-1.16 0.43,0 0.92,0.09 1.29,0.09 0.39,0 0.79,-0.17 1.03,-0.32 0.8,-0.53 1.31,-1.92 0.16,-1.53 -0.79,0.27 -0.87,0.2 -1.63,-0.03 -0.1,-0.03 -0.18,-0.05 -0.27,-0.08 -0.06,-0.02 -0.07,-0.03 -0.15,-0.05l-0.13 -0.04c-0.1,-0.04 -0.16,-0.05 -0.26,-0.08l-1.1 -0.33c-0.69,-0.18 -1.41,-0.36 -2.08,-0.61 -0.05,-0.02 -0.09,-0.03 -0.13,-0.05z"/>
   <path class="fil0" d="M4.78 11.75c-0.25,0 -0.42,-0.07 -0.57,-0.18l-2.35 -1.67c-0.44,-0.3 -0.15,-0.59 0.02,-0.59l0.77 0.38c0.08,0.05 0.13,0.08 0.21,0.13 0.1,0.06 0.57,0.37 0.65,0.39 0.1,0.02 0.36,-0.1 0,-0.32l-1.06 -0.66c-0.14,-0.08 -0.27,-0.21 -0.48,-0.21 -0.29,0 -0.5,0.11 -0.59,0.39 -0.15,0.48 0.28,0.68 0.45,0.81l1.79 1.27c0.05,0.03 0.09,0.05 0.14,0.09 0.06,0.04 0.07,0.06 0.13,0.1 0.82,0.59 1.28,0.28 2.39,0.1 0.25,-0.04 0.47,-0.09 0.7,-0.13 0.6,-0.1 0.67,-0.24 1.1,0.08 0.26,0.19 0.43,-0.05 0.17,-0.22 -0.31,-0.21 -0.42,-0.31 -0.85,-0.22 -0.32,0.07 -2.39,0.45 -2.62,0.45z"/>
   <path class="fil0" d="M4.27 10.31c0,-0.28 0.42,-0.32 0.68,-0.39l1.63 -0.47c1.09,-0.3 1.25,-0.38 2.12,0.3 0.22,0.18 0.83,0.73 0.83,0.32 0,-0.12 -0.75,-0.6 -0.81,-0.65 -0.08,-0.06 -0.13,-0.1 -0.22,-0.16 -0.65,-0.44 -0.95,-0.35 -1.68,-0.17l-1.45 0.41c-0.1,0.03 -0.19,0.06 -0.27,0.08l-0.59 0.16c-0.19,0.05 -0.34,0.12 -0.43,0.28l-0.06 0.14c-0.01,0.02 -0.03,0.13 -0.03,0.14 -0,0.09 0.03,0.22 0.07,0.29 0.05,0.09 0.1,0.14 0.18,0.19 0.05,0.03 0.18,0.09 0.25,0.09l1.56 -0.21c0.08,-0.02 0.1,-0.05 0.18,-0.05 0.02,0 0.1,0.09 0.18,0.1 0.12,0.01 0.19,-0.1 0.13,-0.23 -0.14,-0.3 -0.69,-0.06 -1.11,-0.01 -0.54,0.06 -1.17,0.29 -1.17,-0.17z"/>
   <path class="fil0" d="M5.44 1.32c0.06,-0.09 0.41,-0.24 0.49,-0.54 0.17,0.04 0.03,0.08 0.25,0.29 0.09,0.08 0.2,0.16 0.29,0.22 -0.06,0.08 -0.21,0.15 -0.29,0.22 -0.04,0.03 -0.09,0.1 -0.11,0.15 -0.04,0.07 -0.05,0.1 -0.11,0.15 -0.19,-0.14 -0.01,-0.22 -0.52,-0.49zm-0.69 -0.03c0,0.2 0.26,0.1 0.61,0.28 0.35,0.18 0.38,0.5 0.44,0.77 0.02,0.09 0.05,0.15 0.07,0.24l0.17 0c0.1,-0.2 0.1,-0.63 0.32,-0.85 0.37,-0.37 0.8,-0.18 0.8,-0.44 0,-0.23 -0.53,-0.09 -0.81,-0.42 -0.29,-0.35 -0.15,-0.72 -0.37,-0.87 -0.19,0.04 -0.14,0.09 -0.21,0.42 -0.02,0.11 -0.12,0.35 -0.2,0.43 -0.33,0.37 -0.83,0.21 -0.83,0.44z"/>
   <path class="fil0" d="M8.05 3.21c0.21,0.31 0.15,0.07 0.2,0.26 -0.11,0.03 -0.13,0.11 -0.23,0.17l-0.21 -0.21 0.24 -0.22zm-0.8 0.23c0,0.24 0.46,-0.01 0.61,0.51 0.02,0.06 0.05,0.24 0.08,0.29 0.39,0.09 0.11,-0.37 0.45,-0.58 0.22,-0.13 0.38,-0.04 0.43,-0.25 -0.12,-0.17 -0.36,-0.09 -0.52,-0.28 -0.19,-0.23 -0.01,-0.41 -0.28,-0.55 -0.13,0.09 -0.1,0.1 -0.14,0.26 -0.17,0.65 -0.63,0.33 -0.63,0.6z"/>
   <path class="fil0" d="M5.11 6.44c-0.06,-0.17 -0.36,0.01 -0.68,-0.13 -0.37,-0.16 -0.35,-0.44 -0.51,-0.44 -0.14,0 -0.14,0.06 -0.14,0.17 0,0.05 0.11,0.19 0.14,0.23 0.24,0.31 0.58,0.37 0.95,0.37 0.19,0 0.28,-0.09 0.24,-0.21z"/>
  </g>
 </g>
</svg>
